<?xml version="1.0" standalone="no"?>
<!DOCTYPE svg PUBLIC "-//W3C//DTD SVG 20010904//EN"
 "http://www.w3.org/TR/2001/REC-SVG-20010904/DTD/svg10.dtd">
<svg version="1.0" xmlns="http://www.w3.org/2000/svg"
 width="896.000000pt" height="1128.000000pt" viewBox="0 0 896.000000 1128.000000"
 preserveAspectRatio="xMidYMid meet">

<g transform="translate(0.000000,1128.000000) scale(0.100000,-0.100000)"
fill="#000000" stroke="none">
<path d="M1760 10715 l0 -85 1335 0 1335 0 0 -450 0 -450 -1470 0 -1470 0 2
-4447 3 -4448 2 4443 3 4442 510 0 510 0 0 -100 0 -100 -435 0 -435 0 0 -1550
0 -1550 429 0 430 0 4 -32 c4 -32 4 -32 5 5 l2 37 -105 0 -105 0 0 1540 0
1540 1260 0 1260 0 0 -355 0 -355 -815 0 -815 0 0 -855 0 -855 815 0 815 0 0
-330 0 -330 -575 0 -575 0 2 -37 c1 -37 1 -37 5 -5 l4 32 830 0 829 0 0 1550
0 1550 -480 0 -480 0 0 100 0 100 373 2 372 3 -317 2 -318 3 0 450 0 450 1415
0 1415 0 0 -1059 0 -1058 -52 -7 c-29 -3 -441 -6 -915 -6 l-863 0 -3 198 c-2
178 -3 171 -5 -75 l-2 -273 -25 0 c-24 0 -25 -2 -23 -67 l2 -68 3 63 4 62 904
0 904 0 4 -62 c2 -35 4 1 5 80 l2 142 53 1 c28 1 44 3 35 6 -17 4 -18 63 -18
1063 0 1000 1 1059 18 1063 9 3 -1244 5 -2785 6 l-2803 1 0 75 0 75 2803 3
2802 2 -2807 3 -2808 2 0 -85z m2730 -535 l0 -450 -25 0 -25 0 0 450 0 450 25
0 25 0 0 -450z m-110 -515 c0 -30 -4 -55 -10 -55 -5 0 -10 5 -10 10 0 7 -306
10 -899 10 -589 0 -902 -3 -906 -10 -15 -24 -25 -6 -25 45 l0 55 925 0 925 0
0 -55z m-37 -52 c5 -7 -305 -7 -688 0 -82 1 38 4 267 5 229 1 419 -1 421 -5z
m-1703 -7 c0 -2 -9 -6 -20 -9 -11 -3 -20 -1 -20 4 0 5 9 9 20 9 11 0 20 -2 20
-4z m598 -3 c-109 -2 -287 -2 -395 0 -109 1 -20 2 197 2 217 0 306 -1 198 -2z
m252 -3 c11 -8 7 -9 -15 -4 -37 8 -45 14 -19 14 10 0 26 -5 34 -10z m-940 -25
c0 -14 -4 -25 -10 -25 -5 0 -10 11 -10 25 0 14 5 25 10 25 6 0 10 -11 10 -25z
m1830 0 c0 -14 -4 -25 -10 -25 -5 0 -10 11 -10 25 0 14 5 25 10 25 6 0 10 -11
10 -25z m-1384 -8 l409 -2 -422 -3 c-385 -2 -423 -1 -423 14 0 13 3 14 13 5
10 -7 141 -12 423 -14z m227 16 c-101 -2 -265 -2 -365 0 -101 1 -19 2 182 2
201 0 283 -1 183 -2z m1127 -5 c0 -10 -89 -12 -420 -10 -265 1 -420 6 -420 12
0 6 153 10 420 10 329 0 420 -3 420 -12z m-900 -28 l-25 -8 24 -1 c13 -1 22
-4 18 -7 -3 -4 -18 -3 -34 0 -21 6 -24 9 -12 17 7 5 23 8 34 8 16 -1 16 -2 -5
-9z m617 3 c-109 -2 -285 -2 -390 0 -106 1 -16 2 198 2 215 0 301 -1 192 -2z
m248 -8 c0 -5 -9 -10 -20 -11 l-20 -1 20 5 c18 5 18 6 -5 13 l-25 8 25 -2 c14
-1 25 -6 25 -12z m-1765 -15 c0 -5 -4 -10 -10 -10 -5 0 -10 5 -10 10 0 6 5 10
10 10 6 0 10 -4 10 -10z m855 0 c4 -7 -135 -10 -409 -10 -266 0 -417 4 -421
10 -4 7 135 10 409 10 266 0 417 -4 421 -10z m662 3 c-109 -2 -285 -2 -390 0
-106 1 -16 2 198 2 215 0 301 -1 192 -2z m313 -3 c0 -5 -4 -10 -10 -10 -5 0
-10 5 -10 10 0 6 5 10 10 10 6 0 10 -4 10 -10z m-2470 -39 c0 -15 -9 -20 -47
-23 -27 -3 -53 -1 -58 3 -6 4 -34 11 -63 15 -44 6 -52 4 -52 -10 0 -9 5 -16
11 -16 5 0 7 5 4 10 -3 6 4 10 16 10 18 0 19 -2 9 -15 -15 -18 1 -20 18 -3 8
8 15 8 26 -1 8 -7 37 -12 63 -11 26 1 54 1 61 1 8 -1 12 -20 12 -60 l0 -60
-44 -6 c-24 -4 -66 -8 -93 -8 -36 -2 -49 -6 -46 -14 3 -7 1 -13 -5 -13 -6 0
-12 6 -15 13 -2 6 -7 10 -10 7 -3 -3 -2 -12 3 -20 7 -11 18 -12 62 -2 29 6 74
14 101 17 l47 6 0 -45 0 -45 -64 2 c-35 1 -62 5 -59 10 2 4 -2 7 -9 7 -7 0
-24 3 -38 6 -20 4 -22 3 -10 -5 13 -9 13 -11 -2 -11 -9 0 -18 8 -20 18 -3 14
-5 13 -10 -5 -5 -19 -2 -23 15 -24 12 0 42 -3 67 -6 25 -4 61 -7 82 -7 20 -1
34 -4 31 -8 -2 -5 1 -8 6 -8 13 0 15 -77 2 -85 -5 -3 -13 0 -16 6 -4 5 -28 9
-54 8 -26 -1 -53 1 -59 5 -24 15 -65 17 -73 4 -17 -26 -8 -29 71 -27 44 1 83
-1 87 -5 3 -3 17 -6 30 -6 21 0 23 -4 23 -54 0 -59 -8 -66 -77 -66 -17 0 -34
-4 -38 -9 -3 -6 -18 -6 -36 -1 -25 7 -30 6 -25 -5 2 -7 0 -16 -7 -19 -15 -7
63 4 83 11 8 3 32 5 54 3 28 -1 36 2 31 11 -5 8 -4 10 3 5 7 -4 12 -29 12 -57
l0 -49 -42 7 c-24 4 -59 8 -80 8 -20 0 -36 4 -35 10 3 15 -45 18 -54 4 -13
-21 -1 -29 43 -29 23 0 70 -5 105 -11 l63 -11 0 -48 c0 -27 -5 -52 -12 -56 -7
-5 -8 -3 -3 5 5 10 -5 12 -42 10 -27 -1 -54 0 -60 4 -6 4 -33 9 -60 12 -33 3
-39 2 -18 -3 18 -5 25 -10 18 -15 -6 -4 -19 -4 -29 0 -12 4 -15 3 -10 -5 9
-15 43 -16 51 -2 5 8 11 7 20 0 8 -7 33 -11 57 -10 78 3 88 -5 88 -66 0 -46
-3 -54 -18 -54 -10 0 -22 -3 -26 -7 -4 -4 -24 -6 -45 -4 -22 1 -42 -2 -46 -8
-4 -8 -12 -8 -25 -1 -27 14 -34 12 -20 -5 10 -12 10 -15 -3 -15 -8 0 -17 6
-20 13 -2 6 -7 10 -10 7 -3 -3 -2 -12 2 -19 7 -11 21 -12 72 -3 35 6 81 14
102 17 l37 6 0 -50 c0 -50 0 -50 -27 -45 -79 14 -121 23 -150 32 -27 9 -32 8
-36 -9 -4 -13 0 -19 11 -20 54 -3 100 -9 148 -19 50 -11 54 -13 54 -41 l0 -29
-125 0 -125 0 0 550 0 550 125 0 c116 0 125 -1 125 -19z m50 -6 c0 -18 -5 -25
-20 -25 -15 0 -20 7 -20 25 0 18 5 25 20 25 15 0 20 -7 20 -25z m290 -525 l0
-550 -140 0 -140 0 0 26 c0 22 4 25 23 21 12 -3 46 -9 75 -13 29 -4 55 -11 58
-15 3 -5 17 -8 32 -8 17 1 21 3 10 6 -10 2 -18 9 -18 14 0 6 10 8 23 5 20 -6
20 -5 -2 6 -19 10 -25 10 -29 0 -2 -6 -8 -12 -13 -12 -6 0 -7 5 -3 12 5 8 -3
9 -30 5 -20 -3 -34 -2 -31 2 2 5 -18 11 -45 15 l-50 7 0 59 0 60 41 0 c22 0
38 3 36 8 -3 4 28 6 69 4 69 -3 74 -2 74 17 0 14 -6 21 -17 20 -11 0 -13 -3
-5 -6 6 -2 12 -9 12 -14 0 -13 -28 -11 -32 3 -3 7 -12 9 -24 4 -10 -4 -49 -9
-86 -11 l-68 -5 0 50 c0 48 12 71 25 49 4 -6 32 -9 66 -8 32 1 62 -1 66 -4 3
-4 11 -7 17 -7 6 0 4 5 -4 10 -12 8 -9 10 13 10 28 0 37 -14 15 -23 -8 -3 -6
-6 5 -6 11 -1 17 6 17 20 0 20 -4 21 -89 17 -49 -1 -87 0 -84 5 2 4 -7 7 -21
7 -24 0 -26 3 -26 46 0 38 3 45 18 40 9 -3 35 -8 57 -11 22 -4 61 -13 88 -20
26 -8 47 -12 47 -10 0 2 3 10 6 19 3 9 1 16 -6 16 -6 0 -8 -4 -5 -10 3 -5 -4
-10 -16 -10 -16 0 -19 3 -11 13 11 13 -27 20 -120 21 -20 0 -34 4 -32 8 3 4
-2 8 -10 8 -13 0 -16 12 -16 54 0 59 12 69 76 66 18 -1 35 3 38 9 4 6 18 6 36
1 23 -7 30 -5 30 6 0 8 8 14 18 14 14 0 15 -2 2 -10 -13 -8 -12 -10 3 -10 16
0 24 20 12 32 -4 4 -120 -17 -120 -22 0 -1 -21 -2 -48 -3 l-47 -2 0 52 c0 28
5 55 12 59 7 4 8 3 4 -5 -6 -9 5 -12 41 -11 26 1 66 -3 88 -9 58 -15 75 -14
75 7 0 16 -10 18 -91 20 -119 2 -129 5 -129 46 l0 34 54 -2 c30 0 52 -4 50 -8
-2 -3 22 -6 55 -5 57 2 64 17 8 17 -16 0 -59 5 -98 11 l-69 12 0 57 0 58 80 7
c56 5 78 11 73 19 -3 6 -1 6 8 -1 22 -21 59 -16 59 7 0 23 -29 27 -63 8 -12
-6 -39 -10 -61 -9 -21 1 -36 -1 -33 -6 3 -5 -10 -7 -29 -5 -33 4 -34 5 -34 52
0 39 4 49 20 53 11 3 23 1 26 -5 3 -5 28 -8 55 -7 27 2 52 0 55 -4 11 -11 26
-8 19 3 -3 6 3 10 14 10 15 0 19 -4 14 -17 -4 -11 -3 -14 5 -9 7 4 12 14 12
22 0 12 -13 15 -70 13 -39 -1 -73 1 -77 4 -3 4 -21 7 -40 7 -29 0 -33 3 -33
25 l0 25 140 0 140 0 0 -550z m50 -15 l0 -565 -170 0 -170 0 0 -435 0 -435
170 0 170 0 0 -540 c0 -533 0 -540 -20 -540 -20 0 -20 7 -20 530 l0 530 -160
0 -160 0 0 455 0 455 160 0 160 0 0 555 c0 548 0 555 20 555 20 0 20 -7 20
-565z m3030 210 l0 -355 -245 0 -245 0 0 355 0 355 245 0 245 0 0 -355z
m-3370 235 c0 -53 -2 -60 -20 -60 -18 0 -20 7 -20 60 0 53 2 60 20 60 18 0 20
-7 20 -60z m220 -40 c0 -5 -7 -10 -15 -10 -8 0 -15 5 -15 10 0 6 7 10 15 10 8
0 15 -4 15 -10z m-220 -90 c0 -50 -3 -60 -17 -61 -17 -1 -17 -2 0 -6 13 -3 17
-15 17 -49 0 -28 -4 -44 -12 -44 -10 0 -10 -2 -1 -8 8 -5 12 -45 12 -125 0
-109 -1 -117 -19 -117 -18 0 -19 10 -20 235 0 229 0 235 20 235 18 0 20 -7 20
-60z m-225 -140 c3 -5 -3 -10 -15 -10 -12 0 -18 5 -15 10 3 6 10 10 15 10 5 0
12 -4 15 -10z m445 -40 c0 -5 -7 -10 -15 -10 -8 0 -15 5 -15 10 0 6 7 10 15
10 8 0 15 -4 15 -10z m-440 -200 c0 -5 -7 -10 -15 -10 -8 0 -15 5 -15 10 0 6
7 10 15 10 8 0 15 -4 15 -10z m220 -155 c0 -108 -1 -115 -20 -115 -18 0 -20 7
-20 60 0 41 4 60 13 61 10 0 10 2 0 6 -8 3 -13 24 -13 54 0 42 3 49 20 49 19
0 20 -7 20 -115z m3350 -780 l0 -845 -1050 0 -1050 0 0 845 0 845 1050 0 1050
0 0 -845z m17 -422 c-1 -235 -2 -45 -2 422 0 468 1 660 2 428 2 -232 2 -614 0
-850z m-3367 1017 c0 -53 -2 -60 -20 -60 -18 0 -20 7 -20 60 0 53 2 60 20 60
18 0 20 -7 20 -60z m-223 -26 c-3 -3 -12 -4 -19 -1 -8 3 -5 6 6 6 11 1 17 -2
13 -5z m5523 -54 c0 -21 -5 -30 -16 -30 -8 0 -12 5 -9 10 4 7 -282 10 -849 10
-564 0 -856 -3 -856 -10 0 -5 -7 -10 -15 -10 -10 0 -15 10 -15 30 l0 30 880 0
880 0 0 -30z m-5300 -20 c0 -23 -4 -30 -20 -30 -16 0 -20 7 -20 30 0 23 4 30
20 30 16 0 20 -7 20 -30z m5062 -7 c-112 -2 -292 -2 -400 0 -108 1 -17 2 203
2 220 0 309 -1 197 -2z m-1492 -38 c0 -16 -6 -25 -15 -25 -9 0 -15 9 -15 25 0
16 6 25 15 25 9 0 15 -9 15 -25z m1730 0 c0 -14 -4 -25 -10 -25 -5 0 -10 11
-10 25 0 14 5 25 10 25 6 0 10 -11 10 -25z m-30 3 c0 -10 -85 -12 -400 -10
-252 1 -400 6 -400 12 0 6 146 10 400 10 313 0 400 -3 400 -12z m-5300 -8 c0
-6 -50 -10 -130 -10 -80 0 -130 4 -130 10 0 6 50 10 130 10 80 0 130 -4 130
-10z m4400 0 c0 -6 -138 -10 -395 -10 -257 0 -395 4 -395 10 0 6 138 10 395
10 257 0 395 -4 395 -10z m-4400 -445 l0 -425 -130 0 -130 0 0 425 0 425 130
0 130 0 0 -425z m370 0 l0 -425 -165 0 -165 0 0 425 0 425 165 0 165 0 0 -425z
m3227 409 c-3 -3 -12 -4 -19 -1 -8 3 -5 6 6 6 11 1 17 -2 13 -5z m605 -1
c-112 -2 -292 -2 -400 0 -108 1 -17 2 203 2 220 0 309 -1 197 -2z m1125 1 c-3
-3 -12 -4 -19 -1 -8 3 -5 6 6 6 11 1 17 -2 13 -5z m-5327 -854 c0 -6 -50 -10
-130 -10 -80 0 -130 4 -130 10 0 6 50 10 130 10 80 0 130 -4 130 -10z m-20
-38 c0 -16 -7 -18 -57 -15 -32 2 -77 8 -100 13 -56 13 -59 13 -60 -8 -1 -17 7
-19 79 -20 44 -1 94 -4 109 -7 28 -6 29 -9 29 -60 0 -63 2 -62 -125 -70 -88
-6 -125 -14 -69 -16 l29 -1 -25 -9 c-21 -7 -20 -8 10 -4 19 2 65 7 102 11 42
4 65 11 61 17 -3 6 -1 7 5 3 7 -4 12 -29 12 -56 0 -49 -1 -49 -27 -44 -79 14
-121 23 -150 32 -27 9 -32 8 -36 -9 -3 -10 -1 -19 4 -19 5 0 9 5 9 10 0 6 7
10 15 10 18 0 20 -16 3 -23 -8 -3 -6 -6 5 -6 9 -1 17 4 17 9 0 6 5 10 11 10 5
0 8 -4 5 -9 -3 -5 18 -12 47 -15 106 -14 97 0 97 -152 0 -132 0 -134 -22 -135
-13 -1 -27 0 -33 1 -5 2 -37 7 -71 11 -33 4 -67 9 -74 11 -8 2 -16 -5 -18 -14
-2 -12 3 -18 15 -18 15 0 16 2 3 10 -12 8 -11 10 7 10 15 0 21 -5 17 -14 -4
-12 2 -13 33 -6 23 6 42 5 47 0 6 -6 29 -10 53 -10 l43 0 0 -60 0 -60 -33 0
c-19 0 -37 -3 -40 -7 -4 -3 -36 -5 -72 -4 -61 2 -65 1 -65 -19 0 -19 4 -21 28
-16 15 4 48 9 75 13 26 3 49 9 52 13 2 4 16 5 30 2 22 -4 25 -9 25 -47 l0 -43
-54 1 c-30 1 -51 6 -49 11 3 5 -8 7 -24 4 -17 -2 -35 2 -42 9 -17 19 -41 16
-41 -6 0 -15 11 -19 71 -25 39 -3 75 -3 81 0 7 4 8 2 4 -4 -5 -8 3 -12 23 -12
l31 0 0 -100 0 -100 -125 0 -125 0 0 525 0 525 125 0 c115 0 125 -2 125 -18z
m50 -67 c0 -61 -4 -85 -12 -86 -10 0 -10 -2 0 -6 8 -3 12 -26 12 -64 0 -52 -2
-59 -20 -59 -19 0 -20 7 -19 150 1 141 2 150 20 150 17 0 19 -8 19 -85z m290
-440 l0 -525 -140 0 -140 0 0 90 c0 104 -6 100 115 75 82 -18 85 -18 65 -5
-12 8 -11 10 7 10 17 0 21 -4 17 -17 -5 -15 -4 -16 5 -3 18 25 13 30 -31 31
-24 0 -72 6 -108 13 l-65 12 -3 57 c-3 56 -2 57 23 57 14 0 24 3 21 8 -2 4 13
6 35 4 22 -2 45 1 52 6 8 7 18 7 27 2 22 -14 30 -12 24 5 -4 10 0 15 11 15 9
0 13 -4 10 -10 -3 -5 -1 -10 4 -10 6 0 11 7 11 16 0 14 -8 15 -47 9 -27 -4
-52 -9 -56 -12 -4 -3 -32 -6 -62 -7 l-55 -3 0 48 0 47 40 4 c22 2 44 1 48 -3
4 -4 35 -10 70 -13 52 -6 62 -5 62 9 0 8 -5 15 -11 15 -5 0 -7 -4 -4 -10 3 -5
-1 -10 -9 -10 -9 0 -16 6 -16 14 0 11 -7 13 -30 6 -18 -5 -32 -5 -36 1 -3 6
-29 9 -58 8 l-51 -3 -3 137 -3 138 38 -7 c21 -3 56 -10 78 -16 77 -19 93 -20
100 -8 14 23 -24 32 -147 34 -20 0 -34 4 -32 8 3 4 -4 8 -15 8 -19 0 -21 6
-21 54 0 61 9 71 57 67 18 -1 38 1 45 5 6 4 36 6 65 5 42 -2 53 1 53 13 0 8
-4 18 -10 21 -6 3 -7 -1 -4 -9 4 -12 0 -16 -16 -16 -11 0 -18 5 -15 10 3 6 1
10 -4 10 -6 0 -11 -3 -11 -8 0 -4 -18 -6 -40 -4 -22 2 -40 0 -40 -5 0 -5 -18
-7 -40 -5 l-40 4 0 47 0 46 60 -2 c32 0 63 -4 68 -7 5 -3 28 -8 50 -12 38 -6
42 -5 42 15 0 24 -28 28 -62 10 -15 -8 -19 -8 -13 1 5 9 -8 11 -53 8 -33 -1
-58 0 -55 5 2 4 -5 7 -16 7 -14 0 -21 6 -21 20 0 19 7 20 140 20 l140 0 0
-525z m-520 495 c0 -5 -7 -10 -16 -10 -8 0 -12 5 -9 10 3 6 10 10 16 10 5 0 9
-4 9 -10z m450 -40 c0 -5 -6 -10 -14 -10 -8 0 -18 5 -21 10 -3 6 3 10 14 10
12 0 21 -4 21 -10z m-220 -380 c0 -133 -1 -140 -20 -140 -19 0 -20 7 -20 140
0 133 1 140 20 140 19 0 20 -7 20 -140z m215 110 c3 -5 -1 -10 -9 -10 -9 0
-16 5 -16 10 0 6 4 10 9 10 6 0 13 -4 16 -10z m3155 -380 l0 -330 -245 0 -245
0 0 330 0 330 245 0 245 0 0 -330z m-3370 60 c0 -53 -2 -60 -20 -60 -18 0 -20
7 -20 60 0 53 2 60 20 60 18 0 20 -7 20 -60z m-1 -230 c1 -153 0 -160 -19
-160 -19 0 -20 7 -20 100 0 73 3 100 13 101 10 0 10 2 0 6 -8 3 -13 25 -13 59
0 47 3 54 20 54 18 0 19 -8 19 -160z m-224 140 c-3 -5 -10 -10 -16 -10 -5 0
-9 5 -9 10 0 6 7 10 16 10 8 0 12 -4 9 -10z m0 -60 c3 -5 -1 -10 -9 -10 -9 0
-16 5 -16 10 0 6 4 10 9 10 6 0 13 -4 16 -10z"/>
<path d="M1698 8953 c7 -3 16 -2 19 1 4 3 -2 6 -13 5 -11 0 -14 -3 -6 -6z"/>
<path d="M2135 9150 c3 -5 16 -10 28 -9 21 0 21 1 2 9 -28 12 -37 12 -30 0z"/>
<path d="M3235 8768 c-3 -7 -4 -382 -3 -833 l3 -820 799 -3 c582 -1 802 1 812
9 12 9 14 99 14 490 l0 478 43 4 42 4 -47 1 -48 2 0 -401 0 -401 -81 -89 -81
-89 -722 2 -721 3 0 820 0 820 720 3 720 3 79 -83 c43 -46 72 -74 65 -63 -7
11 -38 47 -69 80 l-55 60 59 3 c87 5 87 4 84 -85 l-3 -78 -50 -6 -50 -6 58 -1
57 -2 0 83 c0 51 -5 88 -12 95 -18 18 -1607 17 -1613 0z m1607 -1640 c-5 -5
-37 -8 -71 -6 l-63 3 69 77 68 77 3 -71 c2 -39 -1 -75 -6 -80z"/>
<path d="M5125 8700 l-140 -6 153 -2 152 -2 0 -348 c0 -257 -3 -351 -12 -360
-8 -8 -56 -12 -149 -12 -160 0 -169 4 -169 78 0 42 3 49 33 67 17 11 48 22 67
26 l35 6 -31 2 c-41 1 -75 39 -72 78 1 17 -6 42 -15 56 -26 40 -22 70 12 90
16 9 37 17 46 17 9 0 13 5 10 10 -4 7 -22 2 -48 -12 -45 -25 -60 -65 -36 -94
9 -11 9 -14 -1 -14 -25 0 -87 23 -111 41 -24 18 -24 18 -4 33 11 9 42 27 69
41 28 14 43 25 35 25 -7 0 -37 -14 -66 -30 -82 -47 -87 -68 -35 -132 20 -25
45 -60 54 -77 9 -17 23 -31 30 -30 10 0 10 2 0 6 -12 5 -42 54 -42 69 0 4 8 0
18 -8 9 -9 28 -21 42 -27 21 -10 22 -10 5 1 -28 19 -135 121 -131 126 3 2 15
-3 28 -11 12 -9 43 -21 68 -28 59 -17 68 -24 62 -55 -3 -17 3 -33 19 -50 l24
-26 -24 -19 c-13 -10 -29 -19 -37 -19 -10 0 -14 -15 -14 -55 0 -89 11 -95 176
-95 74 0 144 5 155 10 18 10 19 25 19 365 0 328 -1 355 -17 362 -10 4 -81 6
-158 3z"/>
<path d="M4952 8628 c-2 -35 -6 -48 -19 -51 -11 -3 -8 -5 9 -6 36 -1 73 -35
102 -93 l23 -48 -50 0 c-64 0 -57 -9 9 -11 60 -2 99 -21 118 -57 9 -15 15 -21
16 -13 0 8 -22 35 -49 60 -28 26 -58 67 -70 93 -13 30 -30 52 -50 62 -26 14
-30 23 -34 63 l-3 48 -2 -47z"/>
<path d="M4680 8570 c-16 -16 -20 -32 -19 -65 2 -25 5 -45 9 -45 3 0 4 -30 2
-67 -4 -55 -9 -72 -28 -90 -29 -27 -30 -47 -4 -80 11 -14 20 -33 20 -42 0 -14
-2 -14 -10 -1 -9 13 -10 13 -10 -1 0 -8 -14 -26 -31 -38 -25 -18 -28 -25 -18
-33 10 -6 6 -7 -11 -3 -21 5 -22 4 -8 -5 13 -8 24 -8 37 0 11 5 30 10 43 11
l23 0 -24 10 c-19 8 -22 12 -12 22 10 9 16 8 30 -8 27 -32 54 -43 117 -48 33
-3 44 -3 24 1 -30 6 -35 11 -38 38 -3 27 1 34 25 43 l28 11 -27 -5 c-37 -7
-88 41 -81 77 3 18 -2 33 -16 47 -34 34 -26 171 10 171 5 0 2 -11 -6 -24 -16
-25 -11 -81 6 -70 5 3 9 1 9 -5 0 -5 -4 -13 -10 -16 -5 -3 -10 -14 -10 -23 1
-16 1 -16 11 1 5 9 17 17 25 17 17 0 129 109 120 117 -3 3 -17 -4 -31 -16 -25
-19 -28 -19 -51 -4 -40 26 -30 43 25 43 44 0 168 37 158 47 -3 2 -28 -5 -56
-17 -28 -11 -74 -20 -102 -20 -47 0 -50 1 -44 23 5 17 4 19 -4 7 -19 -27 -12
-67 14 -88 30 -24 30 -30 6 -61 l-19 -24 -7 22 c-4 12 -4 25 -1 28 3 4 6 -2 6
-13 0 -16 2 -17 10 -4 15 23 12 29 -10 25 -11 -2 -20 1 -20 7 0 7 -7 3 -15 -8
-19 -25 -19 -11 -1 25 10 18 11 32 5 42 -8 12 -10 12 -18 0 -14 -21 -31 -3
-31 33 0 32 24 66 48 66 6 0 16 -8 22 -17 11 -17 11 -17 6 0 -3 10 -6 21 -6
23 0 13 -43 1 -60 -16z m10 -285 c11 0 15 -10 13 -34 -1 -22 5 -39 14 -46 20
-15 13 -50 -11 -50 -10 0 -24 9 -30 20 -5 11 -18 32 -28 47 -10 15 -18 33 -18
41 0 19 21 37 34 29 6 -3 18 -7 26 -7z m69 -162 c1 -17 -5 -23 -19 -23 -23 0
-27 18 -5 26 8 4 15 11 15 17 0 5 -8 3 -18 -6 -23 -21 -36 -21 -53 -1 -11 13
-9 14 14 9 20 -5 29 -2 39 14 12 19 13 19 20 3 3 -9 7 -27 7 -39z m-139 -3 c0
-5 -5 -10 -11 -10 -5 0 -7 5 -4 10 3 6 8 10 11 10 2 0 4 -4 4 -10z"/>
<path d="M4651 8278 c-1 -22 18 -33 32 -19 9 9 8 11 -5 6 -11 -4 -18 0 -21 12
-4 15 -5 16 -6 1z"/>
<path d="M4878 8583 c6 -2 18 -2 25 0 6 3 1 5 -13 5 -14 0 -19 -2 -12 -5z"/>
<path d="M4925 8478 c-27 -15 -149 -138 -142 -144 2 -3 31 25 64 60 33 36 75
72 94 80 19 9 27 15 19 15 -8 0 -24 -5 -35 -11z"/>
<path d="M4512 8459 c3 -15 -86 -63 -137 -74 -28 -6 -29 -6 -9 7 74 47 88 58
73 58 -9 0 -22 -7 -29 -16 -30 -35 -110 -54 -245 -55 l-60 -1 58 -8 c32 -4 75
-4 95 1 42 9 110 2 131 -15 7 -5 17 -19 21 -31 8 -19 9 -19 9 -1 1 11 -6 27
-14 36 -13 15 -8 19 55 47 64 29 71 30 80 15 9 -14 10 -13 5 6 -6 22 -5 23 15
12 12 -6 28 -26 36 -43 15 -31 14 -10 -1 26 -5 12 -2 17 8 17 8 0 17 -3 20 -7
2 -5 2 -3 1 4 -2 6 5 14 14 16 9 2 -8 4 -38 3 -30 0 -63 3 -73 8 -13 6 -17 5
-15 -5z"/>
<path d="M4468 8453 c6 -2 18 -2 25 0 6 3 1 5 -13 5 -14 0 -19 -2 -12 -5z"/>
<path d="M5145 8419 c40 -11 90 -64 110 -114 12 -31 14 -33 9 -10 -13 65 -82
136 -130 134 -12 0 -7 -4 11 -10z"/>
<path d="M4621 8373 c-7 -21 -11 -50 -8 -64 3 -19 5 -18 6 9 0 18 6 42 12 53
6 11 9 25 7 31 -2 6 -10 -7 -17 -29z"/>
<path d="M4546 8369 c-15 -76 -95 -124 -191 -115 l-50 5 40 -10 c22 -5 54 -7
72 -4 43 8 95 -15 123 -55 23 -32 23 -34 7 -62 l-16 -28 27 14 c15 8 36 23 46
35 19 21 19 21 -5 21 -15 0 -20 3 -12 8 15 10 -37 78 -67 87 -19 6 -19 7 5 39
22 29 45 96 33 96 -3 0 -8 -14 -12 -31z m5 -138 c28 -29 37 -51 21 -51 -5 0
-17 10 -28 21 -10 12 -32 30 -49 40 l-30 19 28 0 c18 0 39 -11 58 -29z m38
-87 c-16 -20 -28 -17 -22 5 3 12 11 17 19 14 11 -4 12 -9 3 -19z"/>
<path d="M5080 8377 c19 -10 26 -23 31 -57 l6 -45 1 42 c2 44 -16 73 -46 73
-12 0 -9 -4 8 -13z"/>
<path d="M4010 8350 c-12 -23 -32 -25 -94 -8 -38 10 -50 9 -85 -7 -58 -26 -68
-40 -45 -67 19 -21 19 -21 -11 -14 -92 20 -101 19 -135 -11 -60 -54 -13 -79
159 -84 84 -3 114 -1 92 5 -17 5 -31 14 -31 20 0 6 -4 4 -10 -4 -7 -12 -12
-11 -30 5 -18 16 -19 21 -7 33 27 26 82 26 124 -2 37 -24 121 -52 130 -43 2 3
-18 10 -44 16 -26 7 -59 20 -72 30 -24 18 -24 18 70 24 157 9 194 5 226 -23
l28 -25 -22 26 c-27 30 -29 39 -8 39 9 0 20 -12 26 -26 5 -15 12 -24 15 -21 3
3 1 14 -5 25 -9 17 -8 21 7 25 9 3 -1 5 -23 6 -22 0 -54 -3 -71 -8 -52 -15
-161 1 -187 28 l-22 22 33 30 c20 18 27 29 18 29 -9 0 -20 -9 -26 -20z m-148
-22 c-18 -18 -15 -38 6 -39 16 -1 16 -2 0 -6 -10 -2 -18 -11 -18 -19 0 -16
-33 -11 -57 8 -21 17 -15 26 25 47 42 23 62 27 44 9z m86 -12 c10 -10 3 -13
-38 -15 -51 -2 -60 5 -38 27 14 14 56 8 76 -12z m67 -64 c-9 -2 -24 0 -33 4
-9 4 -20 8 -24 8 -3 1 -10 4 -14 9 -14 14 -26 7 -14 -8 11 -13 7 -15 -23 -15
-52 0 -53 16 -2 32 41 14 45 14 46 -1 0 -10 3 -8 9 7 l10 23 31 -28 c25 -22
28 -29 14 -31z m-260 -6 c47 -11 49 -13 28 -24 -28 -16 -73 -5 -74 17 -1 9 -5
-3 -11 -26 -10 -48 -16 -51 -49 -24 l-24 19 24 26 c27 29 34 29 106 12z m39
-67 c-9 -15 -96 -11 -91 4 4 13 41 15 72 2 19 -8 19 -7 5 11 -14 18 -14 18 2
5 10 -7 15 -17 12 -22z"/>
<path d="M4168 8353 c7 -3 16 -2 19 1 4 3 -2 6 -13 5 -11 0 -14 -3 -6 -6z"/>
<path d="M4572 8322 c-13 -20 -17 -30 -8 -23 14 11 16 11 17 -5 1 -11 5 -1 10
20 5 21 8 40 7 41 -2 2 -13 -13 -26 -33z"/>
<path d="M4986 8345 c-18 -18 -21 -35 -6 -35 11 0 34 39 27 46 -3 3 -12 -2
-21 -11z"/>
<path d="M4118 8343 c6 -2 18 -2 25 0 6 3 1 5 -13 5 -14 0 -19 -2 -12 -5z"/>
<path d="M4040 8330 c-20 -6 -21 -8 -5 -8 11 0 31 4 45 8 20 6 21 8 5 8 -11 0
-31 -4 -45 -8z"/>
<path d="M5051 8331 c-7 -5 -11 -17 -9 -27 4 -17 5 -17 17 4 14 27 12 35 -8
23z"/>
<path d="M5162 8305 c0 -16 2 -22 5 -12 2 9 2 23 0 30 -3 6 -5 -1 -5 -18z"/>
<path d="M5004 8287 c15 -11 17 -17 7 -35 -10 -19 -8 -24 21 -42 41 -25 62
-25 79 -2 11 14 11 15 -1 5 -15 -14 -50 -18 -50 -6 0 4 12 18 28 31 21 18 22
21 5 12 -12 -5 -25 -15 -28 -20 -13 -21 -35 -10 -35 18 0 28 -16 52 -34 52 -5
0 -2 -6 8 -13z"/>
<path d="M4591 8260 c0 -8 4 -24 9 -35 5 -13 9 -14 9 -5 0 8 -4 24 -9 35 -5
13 -9 14 -9 5z"/>
<path d="M5155 8263 c17 -3 38 -12 48 -20 21 -20 23 -10 1 11 -8 9 -30 15 -47
15 l-32 -2 30 -4z"/>
<path d="M4063 8233 c15 -2 37 -2 50 0 12 2 0 4 -28 4 -27 0 -38 -2 -22 -4z"/>
<path d="M5255 8220 c-4 -12 -25 -30 -48 -41 -23 -10 -35 -19 -27 -19 36 0
104 59 87 76 -3 3 -8 -4 -12 -16z"/>
<path d="M4610 8190 c0 -5 5 -10 11 -10 5 0 7 5 4 10 -3 6 -8 10 -11 10 -2 0
-4 -4 -4 -10z"/>
<path d="M4838 8183 c7 -3 16 -2 19 1 4 3 -2 6 -13 5 -11 0 -14 -3 -6 -6z"/>
<path d="M4246 8158 c-21 -30 -20 -38 7 -38 18 0 19 2 7 10 -12 8 -13 13 -2
30 17 27 7 26 -12 -2z"/>
<path d="M4283 8145 c2 -28 8 -32 76 -57 41 -16 86 -28 99 -28 39 0 112 22
106 31 -3 5 -11 9 -17 8 -27 -3 -37 2 -37 20 0 10 -7 25 -17 32 -15 13 -15 12
-5 -8 20 -36 14 -48 -26 -59 -32 -9 -49 -7 -95 11 -63 23 -73 30 -80 60 -4 12
-5 8 -4 -10z m210 -72 c-7 -2 -19 -2 -25 0 -7 3 -2 5 12 5 14 0 19 -2 13 -5z"/>
<path d="M5123 8153 c9 -2 23 -2 30 0 6 3 -1 5 -18 5 -16 0 -22 -2 -12 -5z"/>
<path d="M3945 8140 c11 -5 29 -8 40 -8 16 0 15 2 -5 8 -34 11 -60 11 -35 0z"/>
<path d="M4117 8133 c18 -2 50 -2 70 0 21 2 7 4 -32 4 -38 0 -55 -2 -38 -4z"/>
<path d="M4960 7901 c-14 -27 -14 -675 0 -702 10 -17 23 -19 164 -19 118 0
156 3 165 14 8 9 11 114 9 367 l-3 354 -162 3 c-152 2 -163 1 -173 -17z m325
-351 l0 -355 -149 -3 c-101 -2 -153 1 -162 9 -11 9 -14 73 -14 344 0 184 3
341 6 349 6 14 27 16 163 14 l156 -3 0 -355z"/>
<path d="M2070 7940 l0 -410 35 0 35 0 0 410 0 410 -35 0 -35 0 0 -410z m60 0
l0 -400 -25 0 -25 0 0 400 0 400 25 0 25 0 0 -400z"/>
<path d="M4930 10483 c-141 -49 -220 -166 -220 -326 0 -51 -5 -88 -12 -95 -9
-9 -9 -12 3 -12 9 0 20 -8 25 -18 15 -31 133 -133 177 -153 23 -10 53 -18 67
-18 16 0 9 5 -20 13 -54 14 -105 44 -140 81 -22 24 -23 25 -4 22 11 -1 43 -17
70 -35 28 -17 66 -34 85 -37 30 -5 29 -4 -9 9 -60 20 -118 65 -101 78 10 7 3
8 -20 4 -60 -11 -111 27 -111 82 0 22 37 82 50 82 6 0 8 -4 5 -10 -4 -6 7 -10
24 -10 21 0 31 -5 31 -15 0 -9 10 -29 21 -45 12 -15 22 -40 22 -54 0 -24 1
-24 20 -11 18 12 24 12 51 -6 l31 -21 -28 26 c-15 14 -37 26 -48 26 -10 0 -19
6 -19 13 0 8 -9 22 -20 32 -11 10 -20 27 -20 37 0 10 -7 21 -15 24 -10 4 -12
11 -7 18 5 6 9 25 10 41 l2 30 -19 -29 c-11 -17 -18 -33 -15 -38 3 -4 2 -8 -3
-8 -18 1 -31 17 -36 45 -4 28 -4 28 -6 -6 0 -20 -8 -43 -18 -50 -15 -13 -16
-9 -11 51 13 160 130 274 298 290 l75 7 -60 1 c-33 1 -80 -6 -105 -15z"/>
<path d="M5146 10469 c69 -26 137 -88 169 -152 14 -29 23 -41 19 -27 -21 81
-154 201 -221 199 -10 0 5 -9 33 -20z"/>
<path d="M4954 10449 c-59 -17 -128 -72 -161 -129 -18 -30 -33 -61 -33 -70 0
-8 11 8 24 35 45 97 123 152 235 165 62 7 63 7 16 8 -27 0 -64 -4 -81 -9z"/>
<path d="M5137 10429 c64 -25 132 -97 157 -166 13 -38 15 -41 11 -14 -7 48
-58 124 -103 154 -39 27 -85 47 -105 46 -7 0 11 -9 40 -20z"/>
<path d="M5000 10400 c0 -13 -7 -20 -19 -20 -31 0 -90 -29 -103 -50 -7 -11
-18 -20 -25 -20 -7 0 -12 -3 -11 -7 1 -5 -3 -19 -10 -33 -12 -22 -11 -23 1 -7
8 9 19 17 26 17 6 0 10 3 9 8 -6 17 40 60 77 72 22 7 46 16 54 19 16 8 75 -9
93 -27 7 -7 20 -12 30 -12 10 0 18 -5 18 -11 0 -6 11 -25 25 -44 20 -26 26
-45 26 -89 1 -31 -4 -63 -11 -71 -7 -8 -10 -22 -6 -30 3 -9 0 -15 -8 -15 -8 0
-21 -11 -30 -25 -9 -14 -12 -25 -7 -25 6 0 15 9 21 20 6 12 21 20 36 20 23 0
24 1 10 16 -19 19 -19 19 -4 43 7 12 18 16 32 13 30 -7 96 -61 96 -78 0 -8 4
-14 9 -14 10 0 25 69 17 78 -3 3 -6 -4 -6 -16 0 -14 -6 -22 -16 -22 -12 0 -15
7 -12 25 6 27 -1 32 -20 13 -9 -9 -16 -8 -30 5 -10 9 -25 17 -34 17 -22 0 -29
11 -17 27 9 9 8 13 0 13 -6 0 -11 14 -11 30 0 32 -16 67 -39 86 -10 7 -12 20
-7 39 7 26 6 27 -9 15 -14 -11 -20 -11 -43 2 -15 8 -39 18 -54 22 -16 3 -28
13 -28 21 0 8 -4 15 -10 15 -5 0 -10 -9 -10 -20z"/>
<path d="M6018 10363 c6 -2 18 -2 25 0 6 3 1 5 -13 5 -14 0 -19 -2 -12 -5z"/>
<path d="M6113 10355 c43 -15 53 -22 44 -31 -4 -4 -19 -1 -35 5 -16 7 -47 11
-68 8 l-39 -4 45 -1 c25 -1 56 -9 68 -18 12 -8 26 -13 30 -10 11 6 172 -157
172 -175 0 -17 -261 -279 -278 -279 -16 0 -185 161 -177 168 3 3 0 11 -6 18
-6 7 -15 25 -20 41 -8 25 -8 25 -5 3 2 -14 7 -33 11 -44 6 -14 5 -18 -6 -14
-8 2 -19 20 -26 39 -7 19 -12 26 -12 16 -1 -23 30 -77 43 -77 5 0 47 -36 92
-80 54 -53 89 -80 104 -80 28 0 278 242 287 278 5 20 -9 38 -81 111 -48 48
-84 90 -80 93 9 10 -57 48 -81 48 -12 -1 -4 -7 18 -15z"/>
<path d="M5908 10293 c-72 -70 -99 -108 -97 -140 0 -10 5 -4 10 13 10 36 87
125 143 166 21 15 33 28 27 28 -7 0 -44 -30 -83 -67z"/>
<path d="M5945 10288 c-60 -53 -105 -115 -104 -142 1 -15 3 -13 10 10 5 17 40
61 83 102 81 78 88 97 11 30z"/>
<path d="M5342 10240 c0 -14 2 -19 5 -12 2 6 2 18 0 25 -3 6 -5 1 -5 -13z"/>
<path d="M5352 10180 c0 -19 2 -27 5 -17 2 9 2 25 0 35 -3 9 -5 1 -5 -18z"/>
<path d="M5312 10180 c0 -14 2 -19 5 -12 2 6 2 18 0 25 -3 6 -5 1 -5 -13z"/>
<path d="M5801 10114 c0 -11 3 -14 6 -6 3 7 2 16 -1 19 -3 4 -6 -2 -5 -13z"/>
<path d="M5075 10023 c-11 -2 -30 -6 -42 -8 -15 -4 -20 -10 -16 -21 3 -9 0
-20 -8 -25 -11 -6 -8 -9 9 -9 15 0 26 -9 32 -26 13 -33 13 -32 -12 -37 -14 -2
-11 -3 6 -2 21 1 30 -3 34 -17 2 -11 13 -18 28 -18 12 0 26 -5 30 -11 3 -6 19
-9 35 -5 23 4 29 2 29 -12 1 -15 1 -16 10 -1 5 9 25 20 45 23 19 4 37 11 40
16 4 6 -3 7 -18 1 -50 -19 -119 -21 -151 -3 -36 20 -65 52 -66 71 0 8 -8 23
-17 34 -10 11 -12 17 -5 13 7 -4 12 -1 12 8 0 9 8 16 18 16 9 0 24 5 32 10 15
10 10 11 -25 3z"/>
<path d="M5340 9983 c0 -18 -5 -35 -11 -38 -5 -4 -8 -12 -6 -18 2 -7 -3 -17
-12 -24 -13 -9 -11 -10 12 -6 20 4 25 9 17 18 -7 8 -5 22 6 44 12 24 13 36 5
44 -8 8 -11 3 -11 -20z"/>
<path d="M6449 9884 c-51 -15 -135 -84 -159 -130 l-15 -27 -6 54 c-5 45 -6 40
-7 -36 0 -49 2 -84 5 -77 2 6 19 13 36 13 31 2 31 2 5 6 -33 5 -34 12 -9 61
38 74 106 119 211 138 54 10 58 12 25 12 -22 0 -61 -6 -86 -14z"/>
<path d="M6615 9876 c84 -26 85 -28 85 -116 0 -47 4 -80 10 -80 6 0 10 25 10
55 l0 55 35 -38 c42 -48 55 -80 55 -140 -1 -49 -28 -128 -29 -86 -1 24 -30 54
-54 54 -46 0 -63 -95 -23 -135 l24 -24 -22 -19 c-11 -11 -34 -27 -51 -35 -16
-9 -25 -16 -19 -17 24 0 110 66 134 104 22 35 25 36 28 17 5 -30 43 -47 70
-32 49 26 33 133 -21 139 -30 4 -27 -12 -29 177 -1 59 -2 66 -5 28 -4 -58 -14
-66 -31 -27 -7 14 -16 23 -21 19 -5 -3 -13 0 -17 6 -4 8 -3 9 4 5 26 -16 10
14 -20 40 -39 32 -105 64 -133 63 -11 0 -2 -6 20 -13z m145 -325 c26 -50 1
-119 -38 -107 -19 6 -22 15 -22 61 0 51 6 62 37 64 7 1 17 -8 23 -18z m109 5
c17 -21 10 -97 -11 -109 -26 -17 -48 9 -48 57 0 58 31 86 59 52z"/>
<path d="M5018 9853 c12 -2 30 -2 40 0 9 3 -1 5 -23 4 -22 0 -30 -2 -17 -4z"/>
<path d="M5980 9755 c0 -74 0 -75 26 -75 38 0 64 18 64 45 0 13 -5 27 -10 30
-6 4 -8 16 -5 26 9 27 -12 49 -46 49 l-29 0 0 -75z m65 55 c8 -13 -13 -40 -31
-40 -8 0 -14 10 -14 25 0 18 5 25 19 25 11 0 23 -5 26 -10z m8 -72 c13 -20 -6
-48 -34 -48 -15 0 -19 7 -19 36 0 31 3 35 21 32 12 -2 27 -10 32 -20z"/>
<path d="M6376 9809 c-37 -29 -33 -83 6 -112 23 -17 34 -19 65 -11 20 5 38 15
41 22 2 8 -6 6 -26 -5 -39 -23 -83 -9 -96 29 -22 61 39 108 96 75 15 -9 28
-12 28 -6 0 11 -43 29 -69 29 -10 0 -30 -10 -45 -21z"/>
<path d="M6546 9809 c-52 -41 -19 -129 49 -129 38 0 75 37 75 75 0 38 -37 75
-75 75 -12 0 -34 -9 -49 -21z m94 -9 c11 -11 20 -31 20 -45 0 -14 -9 -34 -20
-45 -11 -11 -31 -20 -45 -20 -14 0 -34 9 -45 20 -11 11 -20 31 -20 45 0 14 9
34 20 45 11 11 31 20 45 20 14 0 34 -9 45 -20z"/>
<path d="M6123 9750 c-17 -39 -28 -70 -24 -70 4 0 13 11 19 25 17 37 74 36 91
-1 6 -15 14 -24 17 -21 6 5 -57 137 -66 137 -3 0 -19 -32 -37 -70z m55 15 c11
-23 10 -25 -14 -25 -20 0 -25 4 -20 16 3 9 6 20 6 25 0 18 17 8 28 -16z"/>
<path d="M5312 9723 l177 -3 4 -73 3 -72 2 78 2 77 -182 -2 -183 -3 177 -2z"/>
<path d="M6252 9615 c0 -16 2 -22 5 -12 2 9 2 23 0 30 -3 6 -5 -1 -5 -18z"/>
<path d="M5728 9573 c8 -3 12 -28 12 -74 0 -39 4 -69 10 -69 6 0 10 32 10 75
0 71 -1 75 -22 74 -13 0 -17 -3 -10 -6z"/>
<path d="M5908 9573 l42 -4 -36 -65 c-20 -36 -34 -67 -31 -70 3 -3 13 9 23 28
9 18 28 52 41 76 l25 42 -54 -2 c-50 -1 -51 -2 -10 -5z"/>
<path d="M6010 9568 c0 -7 -3 -23 -6 -34 -5 -18 -2 -21 18 -17 35 7 54 -20 40
-52 -13 -29 -46 -33 -61 -8 -5 10 -12 15 -16 12 -9 -10 24 -39 45 -39 10 0 26
7 34 16 9 8 16 24 16 34 0 22 -26 50 -46 50 -8 0 -14 9 -14 19 0 15 8 21 33
24 31 4 31 4 -5 5 -25 1 -38 -2 -38 -10z"/>
<path d="M6258 9555 c3 -20 1 -24 -11 -19 -9 3 -24 1 -33 -4 -12 -7 -24 -6
-36 1 -13 9 -23 9 -37 0 -15 -10 -21 -10 -24 0 -3 7 -5 -15 -4 -48 0 -46 1
-50 4 -18 8 79 63 87 63 8 0 -25 5 -45 10 -45 6 0 10 20 10 44 0 36 4 46 20
51 31 10 40 -2 41 -53 2 -46 2 -46 8 -10 l6 37 30 -45 c33 -49 103 -99 150
-108 22 -4 18 -2 -11 9 -23 9 -60 32 -83 52 -40 34 -91 116 -91 147 0 8 -4 17
-9 20 -4 3 -6 -6 -3 -19z"/>
<path d="M6527 9562 c-19 -21 -22 -32 -8 -32 5 0 11 9 14 21 8 30 51 22 55
-10 3 -17 -8 -36 -39 -67 l-43 -44 54 2 c44 1 48 2 17 5 l-38 4 35 40 c40 43
44 60 20 83 -21 21 -47 20 -67 -2z"/>
<path d="M5494 9235 c0 -187 2 -262 3 -167 2 95 2 248 0 340 -1 92 -3 14 -3
-173z"/>
<path d="M6368 9511 c15 -28 15 -31 -1 -49 -9 -10 -17 -23 -17 -28 1 -5 10 2
21 16 l21 25 19 -24 c11 -13 22 -22 24 -19 3 3 -4 16 -15 30 l-20 26 21 26
c11 14 16 26 10 26 -5 0 -17 -10 -25 -21 l-14 -21 -14 21 c-20 32 -29 25 -10
-8z"/>
<path d="M6920 9483 c0 -62 17 -72 22 -12 2 26 10 46 20 53 23 14 31 4 39 -52
l6 -47 2 41 c2 79 61 88 61 9 0 -25 5 -45 10 -45 13 0 13 51 0 84 -10 27 -38
34 -58 14 -8 -8 -15 -8 -24 0 -8 6 -28 10 -46 10 -32 -1 -32 -1 -32 -55z"/>
<path d="M5831 9453 c-1 -6 -4 -20 -7 -30 -5 -17 -5 -17 6 0 6 10 9 23 6 30
-3 9 -5 9 -5 0z"/>
<path d="M6641 9453 c-1 -6 -4 -20 -7 -30 -5 -17 -5 -17 6 0 6 10 9 23 6 30
-3 9 -5 9 -5 0z"/>
<path d="M6598 9343 c7 -3 16 -2 19 1 4 3 -2 6 -13 5 -11 0 -14 -3 -6 -6z"/>
<path d="M6513 9333 c15 -2 37 -2 50 0 12 2 0 4 -28 4 -27 0 -38 -2 -22 -4z"/>
<path d="M6027 9268 c-9 -7 -44 -49 -78 -93 -34 -44 -65 -79 -71 -77 -14 4
-38 -63 -37 -105 1 -34 2 -33 9 13 8 58 17 77 30 69 5 -3 5 -16 0 -31 -6 -14
-10 -37 -9 -52 1 -19 4 -14 11 18 6 25 11 53 11 62 2 30 140 193 163 192 31 0
304 -213 304 -236 0 -19 -117 -182 -135 -187 -5 -2 -21 -11 -35 -21 -14 -9
-32 -20 -40 -23 -13 -5 -13 -6 0 -6 9 -1 26 6 38 15 13 9 26 14 29 11 9 -10
-9 -29 -41 -43 -17 -7 -24 -13 -16 -14 22 0 75 37 75 53 0 7 31 54 68 104 63
86 76 115 59 138 -14 20 -293 225 -305 225 -7 0 -21 -6 -30 -12z"/>
<path d="M2532 9258 c-17 -17 -17 -399 0 -416 17 -17 399 -17 416 0 17 17 17
399 0 416 -9 9 -69 12 -208 12 -139 0 -199 -3 -208 -12z m413 -208 l0 -205
-205 0 -205 0 -3 199 c-2 153 1 201 10 208 7 4 101 7 208 5 l195 -2 0 -205z"/>
<path d="M5880 8956 c0 -55 162 -177 232 -175 13 0 2 6 -25 13 -54 15 -151 86
-184 135 -13 19 -23 31 -23 27z"/>
<path d="M5850 8945 c0 -22 42 -76 92 -116 67 -53 123 -79 168 -78 31 1 29 2
-13 9 -27 5 -60 16 -75 26 -71 45 -135 101 -152 133 -11 20 -19 32 -20 26z"/>
<path d="M7050 8650 l0 -60 60 0 60 0 0 60 0 60 -60 0 -60 0 0 -60z m75 30
c-17 -19 -19 -19 -39 -3 -21 18 -21 18 -3 -3 16 -20 16 -22 -3 -39 -20 -18
-20 -18 -20 17 0 19 3 38 7 41 3 4 22 7 41 7 35 0 35 0 17 -20z m31 -66 c-3
-9 -21 -14 -48 -14 l-42 0 21 22 c22 22 22 22 45 2 l23 -19 -19 23 c-19 22
-19 22 0 43 l19 21 3 -32 c2 -17 1 -38 -2 -46z"/>
<path d="M5443 8130 c0 -47 2 -66 4 -42 2 23 2 61 0 85 -2 23 -4 4 -4 -43z"/>
<path d="M7260 8140 l0 -70 -190 0 -190 0 0 -230 0 -229 -50 50 c-76 76 -144
103 -255 104 -80 0 -97 -3 -157 -32 -84 -40 -142 -97 -181 -181 -27 -57 -31
-77 -31 -147 0 -58 6 -95 23 -137 29 -75 44 -87 81 -66 27 15 29 15 55 -12 14
-15 42 -36 61 -46 23 -13 34 -26 34 -41 0 -14 6 -23 15 -23 8 0 15 7 15 15 0
8 8 15 18 16 12 0 13 2 3 6 -8 3 -21 -3 -29 -13 -14 -18 -14 -18 -10 2 4 16
-4 25 -38 43 -23 13 -53 34 -66 48 -22 23 -22 25 -5 37 9 7 17 21 17 30 0 15
-3 15 -27 -4 -26 -20 -28 -20 -40 -3 -18 24 -43 110 -43 148 0 153 142 295
295 295 86 0 147 -23 208 -81 l52 -49 -25 -21 -24 -21 -21 25 c-23 29 -92 77
-109 77 -6 -1 3 -8 19 -17 17 -8 51 -36 77 -61 41 -40 49 -44 64 -32 14 12 18
12 31 -5 15 -19 15 -19 9 -1 -6 18 9 46 25 46 5 0 8 -46 7 -102 -1 -88 -2 -95
-8 -48 l-7 55 -1 -63 c-1 -40 2 -61 8 -57 7 4 10 -867 10 -2604 l0 -2611 195
0 195 0 0 3040 c0 1672 -2 3040 -5 3040 -3 0 -5 -31 -5 -70z m0 -3040 l0
-2960 -185 0 -185 0 0 2960 0 2960 185 0 185 0 0 -2960z m-605 2645 c33 -9 81
-30 107 -47 56 -35 112 -102 104 -123 -3 -10 -23 4 -68 49 -79 79 -134 100
-246 94 -125 -6 -223 -72 -275 -186 -33 -72 -31 -188 5 -264 18 -39 23 -60 16
-64 -15 -9 -34 18 -58 83 -40 107 -18 241 54 335 55 73 178 135 271 137 17 1
58 -6 90 -14z"/>
<path d="M7140 4876 c0 -120 -4 -175 -15 -206 -19 -53 -19 -78 0 -30 12 31 13
15 13 -155 0 -170 -1 -186 -13 -155 -19 48 -19 23 0 -30 11 -31 15 -86 15
-206 l0 -164 30 0 30 0 0 169 c0 127 4 177 15 204 8 20 15 42 14 49 0 7 -7 -3
-14 -22 -12 -31 -13 -15 -13 155 0 170 1 186 13 155 19 -48 19 -23 0 30 -11
31 -15 86 -15 206 l0 164 -30 0 -30 0 0 -164z m50 -391 c0 -538 0 -545 -20
-545 -20 0 -20 7 -20 545 0 538 0 545 20 545 20 0 20 -7 20 -545z"/>
<path d="M7102 4580 c0 -14 2 -19 5 -12 2 6 2 18 0 25 -3 6 -5 1 -5 -13z"/>
<path d="M7232 4580 c0 -14 2 -19 5 -12 2 6 2 18 0 25 -3 6 -5 1 -5 -13z"/>
<path d="M7093 4485 c0 -33 2 -45 4 -27 2 18 2 45 0 60 -2 15 -4 0 -4 -33z"/>
<path d="M7243 4485 c0 -33 2 -45 4 -27 2 18 2 45 0 60 -2 15 -4 0 -4 -33z"/>
<path d="M7102 4390 c0 -14 2 -19 5 -12 2 6 2 18 0 25 -3 6 -5 1 -5 -13z"/>
<path d="M7232 4390 c0 -14 2 -19 5 -12 2 6 2 18 0 25 -3 6 -5 1 -5 -13z"/>
<path d="M5443 7960 c0 -47 2 -66 4 -42 2 23 2 61 0 85 -2 23 -4 4 -4 -43z"/>
<path d="M5443 7795 c0 -44 2 -61 4 -37 2 23 2 59 0 80 -2 20 -4 1 -4 -43z"/>
<path d="M5443 7630 c0 -47 2 -66 4 -42 2 23 2 61 0 85 -2 23 -4 4 -4 -43z"/>
<path d="M6528 7633 c6 -2 18 -2 25 0 6 3 1 5 -13 5 -14 0 -19 -2 -12 -5z"/>
<path d="M6588 7633 c6 -2 18 -2 25 0 6 3 1 5 -13 5 -14 0 -19 -2 -12 -5z"/>
<path d="M6445 7604 c-22 -14 -49 -38 -59 -52 -15 -21 -10 -19 20 9 21 20 53
44 69 52 17 9 25 16 20 17 -6 0 -29 -12 -50 -26z"/>
<path d="M5443 7460 c0 -47 2 -66 4 -42 2 23 2 61 0 85 -2 23 -4 4 -4 -43z"/>
<path d="M6341 7464 c0 -11 3 -14 6 -6 3 7 2 16 -1 19 -3 4 -6 -2 -5 -13z"/>
<path d="M6332 7405 c0 -16 2 -22 5 -12 2 9 2 23 0 30 -3 6 -5 -1 -5 -18z"/>
<path d="M5443 7290 c0 -47 2 -66 4 -42 2 23 2 61 0 85 -2 23 -4 4 -4 -43z"/>
<path d="M6341 7344 c0 -11 3 -14 6 -6 3 7 2 16 -1 19 -3 4 -6 -2 -5 -13z"/>
<path d="M6815 7243 c-10 -16 -34 -43 -54 -62 -35 -33 -35 -33 -4 -12 28 19
54 48 77 89 14 24 -2 11 -19 -15z"/>
<path d="M5443 7120 c0 -47 2 -66 4 -42 2 23 2 61 0 85 -2 23 -4 4 -4 -43z"/>
<path d="M6628 7113 c7 -3 16 -2 19 1 4 3 -2 6 -13 5 -11 0 -14 -3 -6 -6z"/>
<path d="M5443 6950 c0 -47 2 -66 4 -42 2 23 2 61 0 85 -2 23 -4 4 -4 -43z"/>
<path d="M2840 6885 l0 -75 40 0 c47 0 90 34 90 72 0 27 -26 68 -42 68 -6 0
-4 -8 5 -18 21 -23 22 -76 1 -96 -8 -9 -29 -16 -45 -16 l-29 0 0 64 c0 63 1
65 28 69 22 3 20 4 -10 6 l-38 1 0 -75z"/>
<path d="M3034 6950 c-11 -4 -27 -23 -34 -40 -11 -28 -11 -36 3 -58 8 -15 21
-28 29 -31 8 -2 7 3 -4 16 -40 44 -10 113 48 113 23 0 64 -42 64 -65 0 -23
-40 -64 -68 -68 l-27 -4 28 -2 c18 0 37 8 52 24 62 61 -8 149 -91 115z"/>
<path d="M3180 6883 c0 -76 7 -97 12 -35 1 18 5 32 8 32 3 0 16 -16 30 -35 14
-19 29 -35 34 -35 4 0 -3 15 -17 33 l-25 33 21 10 c48 21 27 74 -29 74 l-34 0
0 -77z m75 37 c0 -21 -5 -26 -32 -28 -31 -3 -33 -1 -33 28 0 29 2 31 33 28 27
-2 32 -7 32 -28z"/>
<path d="M3317 6945 c-14 -47 -20 -138 -8 -131 6 4 11 24 11 45 0 58 12 57 38
-1 l24 -53 29 60 c18 39 29 53 30 40 1 -11 3 -24 4 -30 2 -5 3 -22 4 -37 0
-16 5 -28 11 -28 10 0 3 99 -9 134 -6 16 -13 8 -38 -45 l-31 -64 -29 65 c-24
51 -31 61 -36 45z"/>
<path d="M3490 6885 c0 -43 4 -75 10 -75 6 0 10 32 10 75 0 43 -4 75 -10 75
-6 0 -10 -32 -10 -75z"/>
<path d="M3543 6953 c14 -4 17 -16 17 -74 0 -39 4 -69 10 -69 6 0 10 30 10 69
0 58 3 70 18 74 9 3 -3 5 -28 5 -25 0 -37 -2 -27 -5z"/>
<path d="M3656 6939 c-52 -41 -19 -129 49 -129 38 0 75 37 75 75 0 38 -37 75
-75 75 -12 0 -34 -9 -49 -21z m95 -10 c38 -38 8 -109 -46 -109 -54 0 -84 71
-46 109 12 12 32 21 46 21 14 0 34 -9 46 -21z"/>
<path d="M3810 6885 c0 -43 4 -75 10 -75 6 0 10 17 10 38 l0 37 35 -40 c37
-43 49 -41 15 3 -20 24 -20 26 -3 36 19 10 33 26 33 38 0 18 -35 38 -66 38
l-34 0 0 -75z m75 35 c0 -20 -6 -26 -27 -28 -25 -3 -28 0 -28 28 0 28 3 31 28
28 21 -2 27 -8 27 -28z"/>
<path d="M3940 6914 c-3 -28 -3 -64 1 -80 l5 -29 5 30 c2 17 2 53 -1 80 l-6
50 -4 -51z"/>
<path d="M4005 6935 c-14 -13 -25 -36 -25 -50 0 -36 42 -75 77 -74 l28 2 -27
4 c-28 4 -68 45 -68 68 0 23 41 65 64 65 57 0 88 -69 49 -112 -14 -16 -14 -18
-1 -13 28 11 42 51 29 83 -22 54 -87 67 -126 27z"/>
<path d="M5443 6780 c0 -47 2 -66 4 -42 2 23 2 61 0 85 -2 23 -4 4 -4 -43z"/>
<path d="M2810 6685 c-14 -17 0 -21 17 -4 15 15 43 4 43 -16 0 -9 -7 -18 -15
-21 -12 -5 -10 -10 8 -24 18 -15 20 -22 11 -37 -16 -25 -45 -29 -62 -7 -8 11
-12 13 -10 5 13 -45 88 -34 88 13 0 14 -5 28 -10 31 -8 5 -7 11 0 20 8 10 8
19 0 34 -13 25 -52 28 -70 6z"/>
<path d="M3008 6642 l-37 -57 34 -3 c22 -2 35 -9 38 -20 4 -15 5 -15 6 1 0 9
7 17 14 17 9 0 8 3 -2 9 -9 6 -12 24 -10 60 2 28 2 51 -1 50 -3 0 -22 -26 -42
-57z m32 -22 c0 -26 -4 -30 -26 -30 l-25 0 21 30 c12 17 23 30 26 30 2 0 4
-13 4 -30z"/>
<path d="M3110 6688 c0 -7 -3 -23 -6 -34 -5 -18 -2 -21 18 -17 35 7 54 -20 40
-52 -13 -29 -46 -33 -61 -8 -5 10 -12 15 -16 12 -9 -10 24 -39 45 -39 24 0 50
26 50 50 0 22 -26 50 -46 50 -8 0 -14 9 -14 19 0 15 8 21 33 24 31 4 31 4 -5
5 -25 1 -38 -2 -38 -10z"/>
<path d="M3627 6682 c-19 -21 -22 -32 -8 -32 5 0 11 9 14 21 8 30 51 22 55
-10 3 -17 -8 -36 -39 -67 l-43 -44 54 2 c44 1 48 2 17 5 l-38 4 35 40 c39 42
41 50 26 80 -13 24 -52 25 -73 1z"/>
<path d="M3792 6688 c-21 -21 -14 -49 17 -61 l30 -11 -21 -29 c-11 -15 -18
-30 -15 -33 8 -8 67 83 67 103 0 25 -19 43 -45 43 -12 0 -26 -5 -33 -12z m58
-13 c16 -19 6 -45 -18 -45 -29 0 -48 26 -32 45 16 19 34 19 50 0z"/>
<path d="M3913 6688 c-30 -38 -23 -114 12 -130 52 -23 93 47 63 109 -15 31
-58 43 -75 21z m56 -12 c17 -21 10 -97 -11 -109 -26 -17 -48 9 -48 57 0 58 31
86 59 52z"/>
<path d="M5443 6610 c0 -47 2 -66 4 -42 2 23 2 61 0 85 -2 23 -4 4 -4 -43z"/>
<path d="M3213 6605 c0 -46 1 -50 4 -18 8 79 63 87 63 8 0 -25 5 -45 10 -45 6
0 10 20 10 44 0 37 4 46 21 51 28 9 37 -2 42 -55 l4 -45 1 46 c2 56 -16 78
-51 62 -15 -7 -27 -7 -39 1 -13 8 -23 8 -37 -1 -15 -10 -21 -10 -24 0 -3 7 -5
-15 -4 -48z"/>
<path d="M3464 6636 c18 -28 18 -29 -3 -57 -12 -16 -18 -29 -13 -29 5 0 17 10
26 23 l16 22 16 -22 c9 -13 21 -23 26 -23 5 0 0 13 -12 30 -20 28 -20 30 -3
57 l17 28 -22 -19 c-22 -19 -22 -19 -44 0 l-22 19 18 -29z"/>
<path d="M4020 6603 c0 -62 17 -72 22 -12 2 26 10 46 20 53 23 14 31 4 39 -52
l6 -47 2 41 c2 79 61 88 61 9 0 -25 5 -45 10 -45 13 0 13 51 0 84 -10 27 -38
34 -58 14 -8 -8 -15 -8 -24 0 -8 6 -28 10 -46 10 -32 -1 -32 -1 -32 -55z"/>
<path d="M2925 6560 c-4 -12 -5 -24 -2 -27 3 -2 8 5 12 17 4 12 5 24 2 27 -3
2 -8 -5 -12 -17z"/>
<path d="M3741 6573 c-1 -6 -4 -20 -7 -30 -5 -17 -5 -17 6 0 6 10 9 23 6 30
-3 9 -5 9 -5 0z"/>
<path d="M5443 6440 c0 -47 2 -66 4 -42 2 23 2 61 0 85 -2 23 -4 4 -4 -43z"/>
<path d="M2510 6335 c0 -13 -54 -15 -430 -15 l-430 0 0 -485 0 -485 620 0 620
0 0 -50 0 -50 -232 -3 -233 -2 247 -3 247 -2 4 -22 c2 -13 5 3 6 35 1 44 4 57
17 57 10 0 14 7 12 23 l-3 22 -352 3 -353 2 0 475 0 475 135 0 c128 0 135 1
135 20 0 11 -2 20 -5 20 -3 0 -5 -7 -5 -15z m-270 -500 l0 -475 -290 0 -290 0
0 475 0 475 290 0 290 0 0 -475z m710 -500 c0 -8 -7 -15 -15 -15 -10 0 -15
-11 -15 -35 0 -19 -4 -35 -10 -35 -5 0 -10 23 -10 50 0 47 2 50 25 50 16 0 25
-6 25 -15z"/>
<path d="M1710 5830 l0 -280 240 0 240 0 0 280 0 280 -240 0 -240 0 0 -280z
m470 0 l0 -270 -230 0 -230 0 0 270 0 270 230 0 230 0 0 -270z"/>
<path d="M1820 5962 l0 -108 -36 4 c-35 4 -35 4 -32 -29 3 -31 6 -34 36 -33
l32 2 0 -104 0 -104 155 0 155 0 0 240 0 240 -155 0 -155 0 0 -108z m300 -132
l0 -230 -145 0 -145 0 0 100 0 99 58 3 c50 3 57 6 60 26 3 19 -1 22 -35 22
-83 0 -83 0 -83 111 l0 99 145 0 145 0 0 -230z m-240 1 c0 -13 -27 -21 -71
-21 -28 0 -39 4 -39 15 0 12 13 15 55 15 30 0 55 -4 55 -9z m58 -3 c-7 -19
-35 -21 -41 -3 -5 11 0 15 19 15 16 0 24 -5 22 -12z"/>
<path d="M3684 6280 l1 -75 33 -3 c24 -2 32 1 32 12 0 9 7 16 15 16 9 0 15 -9
15 -25 l0 -25 353 -2 c228 -2 351 -7 350 -13 -2 -5 -23 -11 -48 -13 -69 -5
-54 -22 19 -22 61 0 89 11 66 25 -15 9 -2 25 21 25 14 0 19 7 19 30 0 22 -5
30 -18 30 -10 0 -24 6 -30 12 -7 7 -36 15 -65 19 l-52 6 58 2 c34 0 57 -3 57
-10 0 -5 5 -7 10 -4 23 14 -5 25 -66 25 -50 0 -64 -3 -64 -15 0 -11 12 -15 51
-15 31 0 48 -4 44 -10 -4 -6 -132 -10 -351 -10 l-344 0 0 35 0 35 830 0 830 0
-1 23 c-1 16 -2 18 -6 5 -4 -17 -52 -18 -834 -18 l-829 0 0 -25 c0 -23 -4 -25
-44 -25 l-45 0 -4 43 c-2 23 -4 8 -3 -33z m96 -30 c0 -5 -9 -10 -20 -10 -11 0
-20 -7 -20 -15 0 -9 -9 -15 -25 -15 -20 0 -25 5 -25 25 0 23 4 25 45 25 25 0
45 -4 45 -10z m770 -40 c0 -20 -7 -20 -380 -20 -373 0 -380 0 -380 20 0 20 7
20 380 20 373 0 380 0 380 -20z"/>
<path d="M4553 6135 c0 -22 2 -30 4 -17 2 12 2 30 0 40 -3 9 -5 -1 -4 -23z"/>
<path d="M3330 6112 c0 -9 58 -13 64 -4 2 4 -11 8 -30 9 -19 1 -34 -1 -34 -5z"/>
<path d="M2551 6021 c-18 -40 -31 -75 -27 -78 3 -3 10 6 15 21 9 21 17 26 46
26 29 0 37 -5 46 -26 5 -15 12 -24 16 -21 3 3 -10 39 -29 78 l-34 72 -33 -72z
m52 -1 c4 -16 0 -20 -20 -20 -13 0 -22 3 -20 8 2 4 7 15 10 25 8 22 22 15 30
-13z"/>
<path d="M2680 6014 c0 -86 10 -97 12 -13 l1 54 53 -60 54 -60 0 78 c0 87 -17
106 -22 23 l-3 -54 -47 55 -48 54 0 -77z"/>
<path d="M2833 6083 c14 -4 17 -16 17 -74 0 -39 4 -69 10 -69 6 0 10 30 10 69
0 58 3 70 18 74 9 3 -3 5 -28 5 -25 0 -37 -2 -27 -5z"/>
<path d="M2920 6015 l0 -75 48 2 c43 1 44 2 10 5 -36 4 -38 6 -38 38 0 32 2
34 38 38 l37 4 -37 1 c-33 2 -38 5 -38 26 0 21 5 25 38 29 34 3 33 4 -10 5
l-48 2 0 -75z"/>
<path d="M3030 6015 c0 -74 0 -75 26 -75 38 0 64 18 64 45 0 13 -5 27 -10 30
-6 4 -8 16 -5 26 9 27 -12 49 -46 49 l-29 0 0 -75z m65 55 c8 -13 -13 -40 -31
-40 -8 0 -14 10 -14 25 0 18 5 25 19 25 11 0 23 -5 26 -10z m8 -72 c13 -20 -6
-48 -34 -48 -15 0 -19 7 -19 36 0 31 3 35 21 32 12 -2 27 -10 32 -20z"/>
<path d="M3409 6053 c-1 -21 -1 -47 0 -58 2 -14 -12 -5 -48 35 l-49 54 -4 -34
c-2 -19 -1 -53 2 -75 4 -38 5 -37 10 18 l5 58 48 -57 47 -56 0 76 c0 77 -9
108 -11 39z"/>
<path d="M3494 6080 c-11 -4 -26 -22 -33 -38 -11 -25 -10 -35 3 -61 9 -17 22
-31 28 -31 6 0 4 8 -5 18 -25 27 -22 78 5 96 43 31 93 10 103 -42 5 -28 -29
-70 -63 -75 l-27 -4 28 -2 c18 0 37 8 52 24 62 61 -8 149 -91 115z"/>
<path d="M4537 6053 c-35 -206 -211 -431 -410 -527 -51 -24 -105 -49 -122 -54
-16 -6 -25 -11 -18 -11 24 -2 129 43 195 83 122 72 214 168 286 296 38 67 84
204 80 233 -2 14 -6 7 -11 -20z"/>
<path d="M3191 6053 c-5 -16 -19 -47 -30 -70 -11 -24 -16 -43 -12 -43 4 0 13
11 19 25 17 37 74 36 91 -1 6 -15 14 -24 17 -21 6 6 -58 137 -67 137 -4 0 -12
-12 -18 -27z m37 -28 c11 -23 10 -25 -14 -25 -20 0 -25 4 -20 16 3 9 6 20 6
25 0 18 17 8 28 -16z"/>
<path d="M2388 5823 c8 -3 12 -28 12 -74 0 -39 4 -69 10 -69 6 0 10 32 10 75
0 71 -1 75 -22 74 -13 0 -17 -3 -10 -6z"/>
<path d="M2540 5815 c-14 -17 0 -21 17 -4 15 15 43 4 43 -16 0 -9 -7 -18 -15
-21 -12 -5 -10 -10 8 -24 18 -15 20 -22 11 -37 -16 -25 -45 -29 -62 -7 -8 11
-12 13 -10 5 8 -26 34 -36 62 -23 27 12 35 49 15 69 -8 8 -8 13 0 17 15 10 14
22 -5 40 -20 20 -48 20 -64 1z"/>
<path d="M2670 5818 c0 -7 -3 -23 -6 -34 -5 -18 -2 -21 18 -17 35 7 54 -20 40
-52 -13 -29 -46 -33 -61 -8 -5 10 -12 15 -16 12 -9 -10 24 -39 45 -39 24 0 50
26 50 50 0 22 -26 50 -46 50 -8 0 -14 9 -14 19 0 15 8 21 33 24 31 4 31 4 -5
5 -25 1 -38 -2 -38 -10z"/>
<path d="M3186 5814 c-10 -9 -16 -33 -16 -59 0 -69 51 -101 84 -53 46 65 -15
165 -68 112z m58 -16 c19 -27 20 -48 4 -83 -22 -48 -68 -21 -68 40 0 60 36 84
64 43z"/>
<path d="M3358 5819 c-28 -16 -22 -49 11 -62 l30 -11 -21 -29 c-11 -15 -18
-30 -15 -33 8 -8 67 83 67 103 0 38 -36 53 -72 32z m52 -14 c16 -19 6 -45 -18
-45 -29 0 -48 26 -32 45 16 19 34 19 50 0z"/>
<path d="M3475 5816 c-13 -10 -18 -26 -18 -61 0 -47 18 -75 48 -75 31 0 50 29
50 75 0 35 -5 50 -19 61 -25 18 -37 18 -61 0z m54 -10 c17 -21 10 -97 -11
-109 -26 -17 -48 9 -48 57 0 58 31 86 59 52z"/>
<path d="M2773 5735 c0 -46 1 -50 4 -18 8 79 63 87 63 8 0 -25 5 -45 10 -45 6
0 10 20 10 44 0 37 4 46 21 51 28 9 37 -2 42 -55 l4 -45 1 46 c2 56 -16 78
-51 62 -15 -7 -27 -7 -39 1 -13 8 -23 8 -37 -1 -15 -10 -21 -10 -24 0 -3 7 -5
-15 -4 -48z"/>
<path d="M3024 5766 c18 -28 18 -29 -3 -57 -12 -16 -18 -29 -13 -29 5 0 17 10
26 23 l16 22 16 -22 c9 -13 21 -23 26 -23 5 0 0 13 -12 30 -20 28 -20 30 -3
57 l17 28 -22 -19 c-22 -19 -22 -19 -44 0 l-22 19 18 -29z"/>
<path d="M3583 5735 c0 -46 1 -50 4 -18 8 79 63 87 63 8 0 -25 5 -45 10 -45 6
0 10 20 10 44 0 37 4 46 21 51 28 9 37 -2 42 -55 l4 -45 1 46 c2 56 -16 78
-51 62 -15 -7 -27 -7 -39 1 -13 8 -23 8 -37 -1 -15 -10 -21 -10 -24 0 -3 7 -5
-15 -4 -48z"/>
<path d="M2485 5690 c-4 -12 -5 -24 -2 -27 3 -2 8 5 12 17 4 12 5 24 2 27 -3
2 -8 -5 -12 -17z"/>
<path d="M3301 5703 c0 -6 -4 -20 -7 -30 -5 -14 -4 -15 5 -7 7 7 11 20 8 30
-3 11 -5 14 -6 7z"/>
<path d="M5134 5457 c-2 -7 -3 -102 -2 -212 l3 -200 204 -3 c142 -2 208 1 217
9 11 9 14 52 14 199 0 188 -3 220 -22 220 -7 0 -6 -5 1 -14 8 -9 11 -73 9
-207 l-3 -194 -205 0 -205 0 -3 202 -2 203 197 3 198 2 -198 3 c-153 1 -199
-1 -203 -11z"/>
<path d="M5726 5454 c-3 -8 -5 -88 -4 -177 l2 -162 6 170 5 170 205 0 205 0 0
-200 0 -200 -150 -5 -150 -6 152 -2 c151 -2 153 -2 158 21 3 12 4 108 3 212
l-3 190 -211 3 c-187 2 -212 0 -218 -14z"/>
<path d="M3680 5411 l0 -50 -42 -3 c-36 -2 -44 -7 -46 -25 -2 -16 2 -23 12
-23 9 0 16 -7 16 -15 0 -10 -10 -15 -30 -15 l-30 0 0 -324 c0 -206 -4 -327
-10 -331 -6 -4 -10 13 -10 44 0 39 -4 51 -15 51 -12 0 -15 -14 -15 -64 0 -61
11 -89 25 -66 3 5 1 10 -4 10 -7 0 -10 23 -10 58 l2 57 6 -52 c4 -29 12 -58
19 -65 22 -22 13 -38 -20 -39 -32 -1 -32 -2 7 -10 71 -14 83 -12 87 19 2 21 8
27 26 25 21 -3 22 1 22 62 0 41 -4 65 -11 65 -8 0 -10 -19 -7 -58 4 -55 3 -58
-14 -43 -17 14 -18 39 -18 318 l0 303 30 0 30 0 3 -202 2 -203 3 208 c2 201 1
207 -18 207 -17 0 -20 7 -20 50 0 43 3 50 20 50 15 0 20 7 20 25 0 23 4 25 45
25 l45 0 0 -955 0 -955 -1065 0 -1065 0 2 -427 3 -428 2 423 c2 270 7 422 13
422 6 0 11 -12 11 -27 2 -24 2 -25 6 -5 3 17 11 22 36 23 38 1 647 1 695 0 26
-1 32 -5 33 -23 1 -19 3 -17 9 7 4 17 8 -115 9 -292 l1 -323 55 0 c42 0 55 -3
55 -15 0 -11 10 -15 33 -14 30 2 30 2 5 6 -16 2 -28 9 -28 14 0 5 109 9 270 9
161 0 270 -4 270 -9 0 -6 -15 -12 -32 -14 -32 -4 -32 -4 5 -5 27 -2 37 2 37
13 0 13 43 15 325 15 l325 0 0 1294 0 1295 38 4 c27 3 22 4 -20 5 -32 1 -58 7
-58 12 0 6 -16 10 -35 10 l-35 0 0 -49z m60 29 c0 -5 9 -10 20 -10 11 0 20 -4
20 -10 0 -5 -20 -10 -45 -10 -38 0 -45 3 -45 20 0 15 7 20 25 20 14 0 25 -4
25 -10z m-102 -142 c-1 -44 -2 -46 -5 -15 -3 24 -9 37 -19 37 -8 0 -14 7 -14
15 0 8 9 15 20 15 18 0 20 -6 18 -52z m-28 -388 c0 -353 0 -360 -20 -360 -20
0 -20 7 -20 360 0 353 0 360 20 360 20 0 20 -7 20 -360z m170 -1745 l0 -315
-295 0 -295 0 -2 43 -1 42 -4 -42 -4 -43 -320 0 -319 0 -2 43 -1 42 -4 -42
c-4 -38 -7 -43 -29 -43 l-24 0 0 315 0 315 650 0 650 0 0 -315z"/>
<path d="M2532 3403 l1 -48 4 42 c4 39 7 42 36 46 31 4 31 4 -5 5 l-38 2 2
-47z"/>
<path d="M2638 3443 c12 -2 32 -2 45 0 12 2 2 4 -23 4 -25 0 -35 -2 -22 -4z"/>
<path d="M2738 3443 c12 -2 32 -2 45 0 12 2 2 4 -23 4 -25 0 -35 -2 -22 -4z"/>
<path d="M2838 3443 c12 -2 32 -2 45 0 12 2 2 4 -23 4 -25 0 -35 -2 -22 -4z"/>
<path d="M2938 3443 c12 -2 32 -2 45 0 12 2 2 4 -23 4 -25 0 -35 -2 -22 -4z"/>
<path d="M3038 3443 c12 -2 32 -2 45 0 12 2 2 4 -23 4 -25 0 -35 -2 -22 -4z"/>
<path d="M3147 3443 c29 -4 32 -7 36 -46 l4 -42 1 48 2 47 -37 -2 c-37 -1 -37
-1 -6 -5z"/>
<path d="M2533 3295 c0 -22 2 -30 4 -17 2 12 2 30 0 40 -3 9 -5 -1 -4 -23z"/>
<path d="M2800 3320 c-11 -8 -7 -9 15 -4 37 8 45 14 19 14 -10 0 -26 -5 -34
-10z"/>
<path d="M2890 3324 c0 -7 52 -25 57 -20 2 2 -10 8 -26 14 -17 6 -31 9 -31 6z"/>
<path d="M3183 3295 c0 -22 2 -30 4 -17 2 12 2 30 0 40 -3 9 -5 -1 -4 -23z"/>
<path d="M2720 3265 c-13 -14 -19 -25 -14 -25 8 1 50 50 41 50 -2 0 -14 -11
-27 -25z"/>
<path d="M2995 3256 c10 -14 19 -26 22 -26 7 0 -17 39 -28 46 -6 3 -3 -5 6
-20z"/>
<path d="M2533 3195 c0 -22 2 -30 4 -17 2 12 2 30 0 40 -3 9 -5 -1 -4 -23z"/>
<path d="M3183 3195 c0 -22 2 -30 4 -17 2 12 2 30 0 40 -3 9 -5 -1 -4 -23z"/>
<path d="M2682 3190 c0 -14 2 -19 5 -12 2 6 2 18 0 25 -3 6 -5 1 -5 -13z"/>
<path d="M3031 3184 c0 -11 3 -14 6 -6 3 7 2 16 -1 19 -3 4 -6 -2 -5 -13z"/>
<path d="M2533 3095 c0 -22 2 -30 4 -17 2 12 2 30 0 40 -3 9 -5 -1 -4 -23z"/>
<path d="M3183 3095 c0 -22 2 -30 4 -17 2 12 2 30 0 40 -3 9 -5 -1 -4 -23z"/>
<path d="M2681 3099 c-1 -8 6 -24 15 -35 15 -19 15 -19 6 1 -5 11 -12 27 -15
35 -5 13 -6 13 -6 -1z"/>
<path d="M3015 3064 c-9 -14 -14 -28 -12 -31 3 -3 13 9 22 26 19 38 14 41 -10
5z"/>
<path d="M2533 2995 c0 -22 2 -30 4 -17 2 12 2 30 0 40 -3 9 -5 -1 -4 -23z"/>
<path d="M3183 2995 c0 -22 2 -30 4 -17 2 12 2 30 0 40 -3 9 -5 -1 -4 -23z"/>
<path d="M2734 3011 c7 -11 46 -35 46 -28 0 3 -12 12 -26 22 -15 9 -23 12 -20
6z"/>
<path d="M2948 2994 c-16 -8 -28 -17 -28 -19 0 -10 16 -4 40 15 30 23 25 25
-12 4z"/>
<path d="M2828 2963 c12 -2 32 -2 45 0 12 2 2 4 -23 4 -25 0 -35 -2 -22 -4z"/>
<path d="M3948 5453 c7 -3 16 -2 19 1 4 3 -2 6 -13 5 -11 0 -14 -3 -6 -6z"/>
<path d="M3893 5443 c9 -2 23 -2 30 0 6 3 -1 5 -18 5 -16 0 -22 -2 -12 -5z"/>
<path d="M3800 4455 l0 -955 460 0 460 0 0 253 c0 229 2 255 18 269 9 9 24 18
32 21 10 4 7 6 -7 6 -13 1 -23 -3 -23 -7 0 -5 -23 -23 -51 -41 -27 -18 -48
-36 -45 -39 4 -3 16 4 29 16 13 12 26 22 30 22 4 0 7 -70 7 -155 l0 -155 -34
0 c-19 0 -37 6 -39 13 -3 6 -6 2 -6 -10 -1 -28 -12 -29 -36 -3 -10 11 -23 20
-29 20 -6 0 2 -10 17 -23 l29 -23 -24 -39 -23 -40 -6 35 c-4 19 -7 28 -8 20
-2 -11 -5 -9 -11 5 -5 11 -9 14 -9 7 -1 -7 5 -21 11 -32 18 -28 -1 -54 -41
-58 l-32 -3 56 107 c31 59 54 114 52 123 -4 13 -5 12 -6 -2 -2 -30 -67 -140
-106 -178 -50 -51 -80 -65 -100 -49 -20 17 -19 48 4 90 11 19 27 50 35 67 9
18 30 39 46 48 17 9 30 18 30 21 0 3 -4 2 -10 -1 -5 -3 -10 -1 -10 5 0 6 -16
20 -36 32 -26 15 -32 23 -22 30 8 5 -5 6 -31 2 -35 -6 -43 -4 -39 7 2 7 13 16
24 19 11 3 44 21 73 40 30 19 57 34 61 33 9 -3 22 86 14 98 -10 17 -13 130 -3
124 5 -4 9 -16 9 -27 0 -12 3 -19 6 -15 3 3 3 20 -1 37 -6 28 -10 31 -33 26
-24 -6 -25 -5 -8 5 14 9 24 9 37 1 15 -9 17 -9 13 3 -3 7 -15 16 -27 18 -13 3
-8 5 14 6 33 1 35 -1 34 -26 -2 -26 -2 -26 3 -3 l5 25 8 -25 c7 -20 8 -18 4
11 -4 27 -1 40 15 54 11 10 19 29 19 44 l-2 26 -4 -25 c-6 -32 -33 -62 -50
-56 -7 3 -13 1 -13 -4 0 -6 -9 -10 -21 -10 -45 0 -73 -38 -43 -58 17 -11 24
-40 18 -72 -6 -26 -19 -35 -109 -79 -69 -32 -115 -62 -141 -90 -22 -22 -46
-41 -55 -41 -9 0 -27 -8 -40 -18 -13 -10 -33 -22 -44 -27 -18 -7 -18 -9 -2
-12 19 -5 22 -18 6 -28 -14 -9 -59 3 -59 16 0 6 8 6 23 -1 21 -11 21 -10 3 4
-11 9 -15 16 -10 16 21 0 54 86 53 136 -2 49 -2 49 -9 -13 -7 -64 -44 -129
-79 -140 -14 -4 -47 -18 -73 -31 -15 -7 -8 36 8 49 15 13 44 62 44 76 0 4 -12
-12 -27 -35 -15 -23 -29 -40 -31 -38 -2 2 0 254 4 560 l7 556 93 0 93 0 4 -42
4 -43 -1 45 -1 45 -103 0 c-56 0 -102 3 -102 8 0 4 -29 7 -65 7 l-65 0 0 205
0 205 450 0 450 0 0 -446 0 -446 -32 -49 c-18 -28 -39 -49 -49 -49 -25 0 -49
-27 -48 -53 l2 -22 4 22 c5 27 20 39 60 46 l33 6 -35 -50 c-19 -28 -35 -59
-35 -68 0 -9 9 3 20 27 38 84 80 61 80 -44 0 -57 -2 -62 -20 -57 -13 3 -37 -5
-63 -23 -23 -16 -45 -27 -49 -26 -4 1 -12 -15 -18 -36 -14 -51 -11 -65 4 -22
18 50 90 104 129 96 16 -3 37 -1 48 5 11 5 39 14 62 19 l42 9 -40 -4 c-22 -2
-50 -7 -62 -11 -22 -6 -23 -4 -23 52 0 51 4 62 31 90 24 25 32 43 34 76 1 23
0 28 -2 11 -2 -18 -8 -33 -14 -33 -5 0 -9 -6 -9 -12 -1 -18 -50 -76 -50 -59 0
8 -8 20 -17 27 -15 10 -16 15 -5 25 17 18 15 32 -3 25 -18 -7 -20 5 -3 22 17
17 38 15 60 -5 12 -11 18 -12 18 -4 0 7 -13 18 -30 24 l-30 11 47 48 c26 26
42 48 36 48 -6 0 -18 -11 -27 -25 -9 -14 -21 -25 -26 -25 -6 0 -10 162 -10
445 l0 445 -460 0 -460 0 0 -955z m130 -75 c0 -582 -1 -600 -20 -632 -24 -40
-25 -71 -5 -129 18 -50 42 -79 64 -79 10 1 6 6 -10 15 -28 15 -59 86 -59 135
0 35 53 108 88 121 20 8 38 7 66 -2 35 -12 40 -11 55 6 24 28 40 29 61 3 l18
-23 -5 28 c-8 41 14 33 25 -10 5 -21 10 -30 11 -20 1 12 7 17 19 15 12 -2 19
-16 23 -53 l6 -50 1 48 c2 56 25 62 30 8 5 -54 -27 -114 -41 -78 -3 7 -6 5 -6
-5 -1 -9 -11 -24 -23 -32 -18 -13 -19 -16 -6 -16 9 0 20 5 23 10 4 6 10 8 14
6 4 -3 18 12 29 33 26 46 30 119 7 128 -14 5 -14 7 0 23 22 24 78 16 123 -17
39 -29 40 -36 7 -53 -14 -7 -25 -19 -25 -27 0 -7 -11 -30 -25 -51 -31 -47 -41
-93 -25 -122 10 -18 9 -24 -1 -31 -18 -12 69 0 93 12 9 5 32 9 51 9 19 0 40 7
47 15 7 8 18 15 26 15 7 0 16 9 19 20 5 17 15 20 66 20 l59 0 0 -55 0 -56
-210 2 c-208 1 -210 1 -252 28 -24 14 -56 32 -72 39 -27 12 -27 14 -12 31 9
10 16 25 16 34 0 9 5 17 12 17 6 0 8 3 5 7 -4 3 -1 13 6 22 9 10 11 25 6 41
-4 16 -7 19 -8 8 -1 -10 -8 -18 -16 -18 -25 0 -65 23 -65 37 0 7 -4 13 -10 13
-27 0 -5 -30 35 -47 l45 -18 -23 -18 c-20 -16 -20 -17 -2 -11 14 4 10 -3 -13
-23 -18 -15 -32 -32 -32 -37 0 -5 11 1 25 14 14 13 25 19 25 14 0 -20 -36 -52
-104 -91 -16 -10 -17 -13 -5 -13 9 0 28 9 42 20 14 11 30 20 36 20 12 0 92
-40 121 -59 10 -8 -56 -11 -217 -11 l-233 0 0 735 0 735 60 0 60 0 0 -600z
m564 -326 c4 -9 4 -32 0 -51 -5 -27 -17 -41 -63 -70 -81 -52 -114 -59 -157
-34 -19 11 -34 17 -34 12 0 -4 12 -13 26 -20 15 -6 24 -14 21 -18 -4 -3 -23 2
-43 12 l-36 17 28 29 28 30 10 -23 c9 -22 10 -21 14 10 3 30 10 35 95 77 51
25 95 45 98 45 4 0 10 -7 13 -16z m-238 -185 c14 -12 14 -15 -6 -31 -28 -23
-36 -23 -43 2 -4 16 -14 20 -43 20 -36 0 -37 1 -18 15 22 18 86 14 110 -6z
m34 -28 c-19 -16 -37 -27 -40 -25 -5 6 52 53 65 54 5 0 -6 -13 -25 -29z m420
-186 c0 -23 -3 -25 -50 -25 l-50 0 16 25 c12 19 25 25 50 25 30 0 34 -3 34
-25z m-252 -81 c-19 -20 -41 -35 -47 -33 -7 3 7 19 31 36 57 41 60 41 16 -3z"/>
<path d="M4140 3816 c0 -9 5 -16 10 -16 6 0 10 4 10 9 0 6 -4 13 -10 16 -5 3
-10 -1 -10 -9z"/>
<path d="M3977 3772 c-18 -20 -61 -112 -55 -118 3 -2 15 21 28 52 17 42 30 59
54 70 24 10 27 13 10 14 -11 0 -28 -8 -37 -18z"/>
<path d="M4052 3783 c9 -2 15 -10 12 -17 -3 -8 2 -16 12 -20 14 -5 15 -4 4 9
-9 11 -9 15 -1 15 7 0 9 5 6 10 -3 6 -16 9 -28 9 -16 -1 -17 -3 -5 -6z"/>
<path d="M4120 3786 c0 -2 7 -9 15 -16 13 -11 14 -10 9 4 -5 14 -24 23 -24 12z"/>
<path d="M1650 4580 l0 -670 375 0 375 0 0 -160 c0 -88 3 -160 8 -160 5 0 9
284 9 865 0 8 -1 191 -1 405 l-1 390 -382 0 -383 0 0 -670z m730 292 l0 -369
-25 -11 c-15 -7 -25 -20 -25 -32 0 -12 10 -25 25 -32 29 -13 30 -17 10 -44
-19 -25 -19 -40 0 -24 13 11 15 -14 15 -214 l0 -226 -360 0 -360 0 0 660 0
660 360 0 360 0 0 -368z m17 -189 c-1 -104 -2 -19 -2 187 0 206 1 291 2 188 2
-104 2 -272 0 -375z m-17 -223 c0 -33 -11 -38 -30 -15 -10 12 -10 18 0 30 19
23 30 18 30 -15z m17 -17 c-3 -10 -5 -4 -5 12 0 17 2 24 5 18 2 -7 2 -21 0
-30z m0 -405 c-1 -68 -3 -13 -3 122 0 135 2 190 3 123 2 -68 2 -178 0 -245z"/>
<path d="M2188 4493 c8 -3 12 -28 12 -74 0 -39 4 -69 10 -69 6 0 10 32 10 75
0 71 -1 75 -22 74 -13 0 -17 -3 -10 -6z"/>
<path d="M2291 4373 c-1 -6 -4 -20 -7 -30 -5 -17 -5 -17 6 0 6 10 9 23 6 30
-3 9 -5 9 -5 0z"/>
<path d="M2932 5140 c0 -19 2 -27 5 -17 2 9 2 25 0 35 -3 9 -5 1 -5 -18z"/>
<path d="M5721 5090 c-2 -38 17 -50 74 -48 l50 1 -55 6 c-51 6 -55 8 -61 36
-6 28 -7 28 -8 5z"/>
<path d="M2942 5085 c0 -11 3 -29 8 -40 11 -25 11 1 0 35 -6 20 -8 21 -8 5z"/>
<path d="M2966 5000 c25 -89 108 -210 198 -288 62 -53 196 -127 251 -137 17
-3 3 5 -30 17 -102 40 -177 89 -256 168 -61 61 -86 96 -124 171 -25 52 -43 83
-39 69z"/>
<path d="M4153 4785 c0 -38 2 -53 4 -32 2 20 2 52 0 70 -2 17 -4 1 -4 -38z"/>
<path d="M3684 4495 c0 -187 2 -262 3 -167 2 95 2 248 0 340 -1 92 -3 14 -3
-173z"/>
<path d="M2870 4772 c0 -9 58 -13 64 -4 2 4 -11 8 -30 9 -19 1 -34 -1 -34 -5z"/>
<path d="M2570 4675 c0 -74 0 -75 26 -75 38 0 64 18 64 45 0 13 -5 27 -10 30
-6 4 -8 16 -5 26 9 27 -12 49 -46 49 l-29 0 0 -75z m65 55 c8 -13 -13 -40 -31
-40 -8 0 -14 10 -14 25 0 18 5 25 19 25 11 0 23 -5 26 -10z m8 -72 c13 -20 -6
-48 -34 -48 -15 0 -19 7 -19 36 0 31 3 35 21 32 12 -2 27 -10 32 -20z"/>
<path d="M2950 4693 l-1 -58 -49 55 -50 55 2 -75 1 -75 6 58 6 58 48 -57 47
-56 0 76 c0 42 -2 76 -5 76 -3 0 -5 -26 -5 -57z"/>
<path d="M3034 4740 c-11 -4 -26 -22 -33 -38 -11 -25 -10 -35 3 -61 9 -17 22
-31 28 -31 6 0 4 8 -5 18 -39 43 -8 112 49 112 23 0 64 -42 64 -65 0 -23 -40
-64 -68 -68 -25 -4 -25 -4 5 -6 23 -1 37 6 52 25 54 69 -12 148 -95 114z"/>
<path d="M2713 4670 c-17 -39 -28 -70 -24 -70 4 0 13 11 19 25 17 37 74 36 91
-1 6 -15 14 -24 17 -21 6 5 -57 137 -66 137 -3 0 -19 -32 -37 -70z m55 15 c11
-23 10 -25 -14 -25 -20 0 -25 4 -20 16 3 9 6 20 6 25 0 18 17 8 28 -16z"/>
<path d="M4163 4625 c0 -27 2 -38 4 -22 2 15 2 37 0 50 -2 12 -4 0 -4 -28z"/>
<path d="M5260 4260 l0 -380 380 0 380 0 0 380 0 380 -380 0 -380 0 0 -380z
m750 0 l0 -370 -370 0 -370 0 0 370 0 370 370 0 370 0 0 -370z"/>
<path d="M3458 4563 c6 -2 18 -2 25 0 6 3 1 5 -13 5 -14 0 -19 -2 -12 -5z"/>
<path d="M4153 4430 c0 -47 2 -66 4 -42 2 23 2 61 0 85 -2 23 -4 4 -4 -43z"/>
<path d="M2456 4478 c-31 -44 -9 -128 33 -128 29 0 51 33 51 77 0 65 -52 97
-84 51z m64 -7 c26 -50 1 -119 -38 -107 -19 6 -22 15 -22 61 0 51 6 62 37 64
7 1 17 -8 23 -18z"/>
<path d="M3008 4425 c5 -97 22 -98 22 0 0 53 -4 75 -12 75 -10 0 -12 -20 -10
-75z"/>
<path d="M3170 4488 c0 -7 -3 -23 -6 -34 -5 -18 -2 -21 18 -17 35 7 54 -20 40
-52 -13 -29 -46 -33 -61 -8 -5 10 -12 15 -16 12 -9 -10 24 -39 45 -39 24 0 50
26 50 50 0 22 -26 50 -46 50 -8 0 -14 9 -14 19 0 15 8 21 33 24 31 4 31 4 -5
5 -25 1 -38 -2 -38 -10z"/>
<path d="M3286 4488 c-14 -47 -13 -54 12 -53 32 0 51 -28 36 -52 -16 -25 -38
-27 -59 -6 -12 12 -17 13 -14 4 16 -47 89 -33 89 17 0 32 -16 52 -42 52 -34 0
-16 36 22 43 21 4 20 4 -8 6 -18 0 -34 -4 -36 -11z"/>
<path d="M2573 4405 c0 -46 1 -50 4 -18 8 79 63 87 63 8 0 -25 5 -45 10 -45 6
0 10 20 10 44 0 37 4 46 21 51 28 9 37 -2 42 -55 l4 -45 1 46 c2 56 -16 78
-51 62 -15 -7 -27 -7 -39 1 -13 8 -23 8 -37 -1 -15 -10 -21 -10 -24 0 -3 7 -5
-15 -4 -48z"/>
<path d="M2828 4431 c15 -28 15 -31 -1 -49 -9 -10 -17 -23 -17 -28 1 -5 10 2
21 16 l21 25 19 -24 c11 -13 22 -22 24 -19 3 3 -4 16 -15 30 l-20 26 21 26
c11 14 16 26 10 26 -5 0 -17 -10 -25 -21 l-14 -21 -14 21 c-20 32 -29 25 -10
-8z"/>
<path d="M3380 4403 c0 -62 17 -72 22 -12 2 26 10 46 20 53 23 14 31 4 39 -52
l6 -47 2 41 c2 79 61 88 61 9 0 -25 5 -45 10 -45 13 0 13 51 0 84 -10 27 -38
34 -58 14 -8 -8 -15 -8 -24 0 -8 6 -28 10 -46 10 -32 -1 -32 -1 -32 -55z"/>
<path d="M4021 4381 c-20 -5 -24 -13 -24 -46 1 -22 3 -47 7 -55 3 -8 7 -31 9
-50 3 -23 4 -18 3 12 -1 48 10 63 35 48 11 -7 10 -13 -6 -30 -16 -18 -16 -20
-2 -14 17 6 19 10 21 37 1 6 8 18 16 25 12 10 10 10 -12 3 -20 -8 -28 -7 -32
5 -10 27 -7 35 12 25 9 -5 25 -12 36 -15 13 -5 16 -12 12 -26 -15 -49 -16 -62
-2 -32 8 17 22 32 29 32 8 0 18 7 21 16 9 24 7 31 -5 12 -15 -27 -30 -22 -23
7 12 47 -27 65 -95 46z m49 -17 c0 -12 -6 -15 -26 -10 -25 7 -26 5 -21 -23 4
-17 3 -31 -2 -31 -5 0 -11 16 -13 35 -2 19 -2 33 0 31 2 -3 31 3 60 13 1 1 2
-6 2 -15z m22 -16 c-8 -8 -9 -4 -5 13 4 13 8 18 11 10 2 -7 -1 -18 -6 -23z"/>
<path d="M3098 4355 c-3 -14 -1 -25 3 -25 5 0 9 4 9 9 0 5 3 16 6 25 3 9 2 16
-4 16 -5 0 -12 -11 -14 -25z"/>
<path d="M5088 4333 c7 -3 16 -2 19 1 4 3 -2 6 -13 5 -11 0 -14 -3 -6 -6z"/>
<path d="M4975 4290 c-38 -22 -80 -39 -92 -39 -24 -1 -33 -21 -10 -21 8 0 20
-18 27 -40 9 -26 17 -37 24 -32 16 12 130 52 148 52 13 0 14 7 8 36 -5 19 -16
44 -25 54 -13 14 -13 19 -3 23 7 3 9 5 3 5 -5 0 -41 -17 -80 -38z m77 -7 c10
-9 18 -26 18 -38 0 -18 -13 -26 -76 -48 l-75 -27 -14 33 c-7 17 -13 33 -12 34
7 6 124 62 131 63 5 0 18 -7 28 -17z"/>
<path d="M5163 4324 c3 -3 -10 -28 -29 -55 -19 -27 -31 -49 -27 -49 8 0 73 95
73 105 0 3 -5 5 -12 5 -6 0 -9 -3 -5 -6z"/>
<path d="M3242 4280 c-69 -31 -82 -71 -82 -257 l0 -152 33 -25 c27 -22 29 -28
17 -36 -10 -7 37 -10 145 -10 105 0 155 4 145 10 -12 8 -10 14 18 39 l32 30 0
147 c0 179 -13 219 -84 253 -57 28 -164 28 -224 1z m226 -20 c52 -32 62 -69
62 -233 0 -98 -4 -147 -12 -155 -17 -17 -309 -17 -326 0 -18 18 -16 288 2 333
23 55 67 75 161 75 63 0 87 -4 113 -20z m15 -430 c-5 -19 -14 -20 -128 -20
-114 0 -123 1 -128 20 -5 19 0 20 128 20 128 0 133 -1 128 -20z"/>
<path d="M4602 4235 c0 -16 2 -22 5 -12 2 9 2 23 0 30 -3 6 -5 -1 -5 -18z"/>
<path d="M4082 4185 c0 -16 2 -22 5 -12 2 9 2 23 0 30 -3 6 -5 -1 -5 -18z"/>
<path d="M4636 4163 c-20 -21 -36 -42 -36 -48 0 -5 9 0 20 12 12 12 32 34 45
48 13 14 20 25 15 25 -5 0 -25 -17 -44 -37z"/>
<path d="M4003 4135 c0 -22 2 -30 4 -17 2 12 2 30 0 40 -3 9 -5 -1 -4 -23z"/>
<path d="M2637 4139 c-54 -41 -57 -58 -57 -308 l0 -230 -77 -4 c-43 -1 75 -3
262 -3 187 0 305 2 263 3 l-78 4 0 230 c0 255 -3 271 -63 308 -29 18 -50 21
-128 21 -79 -1 -98 -4 -122 -21z m260 -32 l38 -37 3 -190 c3 -167 1 -190 -12
-190 -9 0 -16 9 -16 21 0 54 -62 90 -153 88 -31 -1 -44 -4 -32 -7 11 -4 20
-16 20 -27 0 -13 7 -20 20 -20 15 0 20 6 19 23 -1 21 3 23 30 18 43 -9 76 -33
76 -56 0 -19 -7 -20 -125 -20 -124 0 -125 0 -125 23 0 16 10 29 33 40 25 14
27 16 7 11 -32 -8 -60 -40 -60 -70 0 -15 -6 -24 -15 -24 -13 0 -15 27 -15 181
0 164 2 185 20 214 32 51 72 66 167 63 81 -3 84 -4 120 -41z m-122 -347 c-5
-8 -11 -8 -17 -2 -6 6 -7 16 -3 22 5 8 11 8 17 2 6 -6 7 -16 3 -22z m125 -70
c0 -5 9 -10 20 -10 17 0 20 -7 20 -40 l0 -40 -175 0 -175 0 0 40 c0 33 3 40
20 40 11 0 20 5 20 10 0 6 52 10 135 10 83 0 135 -4 135 -10z"/>
<path d="M2743 3654 c-3 -8 -1 -20 5 -26 15 -15 43 8 35 28 -7 19 -32 18 -40
-2z m31 -15 c-3 -5 -10 -7 -15 -3 -5 3 -7 10 -3 15 3 5 10 7 15 3 5 -3 7 -10
3 -15z"/>
<path d="M3680 3875 l0 -275 -55 0 -55 0 0 78 c0 75 -15 122 -41 122 -5 0 0
-9 11 -20 17 -17 20 -33 20 -100 l0 -80 -209 0 c-115 0 -211 4 -213 9 -1 5 -9
3 -16 -5 -11 -12 29 -14 278 -14 l290 0 0 280 c0 154 -2 280 -5 280 -3 0 -5
-124 -5 -275z"/>
<path d="M4900 4127 c0 -11 -8 -17 -22 -17 -13 0 -45 -7 -73 -15 -47 -14 -48
-14 -10 -10 l40 5 -24 -20 c-13 -11 -18 -20 -12 -20 7 0 22 11 35 25 13 14 33
25 45 25 21 0 39 25 27 37 -3 4 -6 -1 -6 -10z"/>
<path d="M4093 4075 c0 -22 2 -30 4 -17 2 12 2 30 0 40 -3 9 -5 -1 -4 -23z"/>
<path d="M4647 4048 c-18 -18 -21 -22 -5 -9 15 13 44 27 65 31 l38 8 -33 1
c-24 1 -41 -7 -65 -31z"/>
<path d="M4551 4014 c0 -11 3 -14 6 -6 3 7 2 16 -1 19 -3 4 -6 -2 -5 -13z"/>
<path d="M4002 3975 c-1 -27 1 -35 7 -26 5 8 16 11 26 8 9 -4 14 -3 10 3 -3 6
-12 10 -20 10 -7 0 -16 10 -18 23 -2 12 -5 5 -5 -18z"/>
<path d="M4561 3974 c0 -11 3 -14 6 -6 3 7 2 16 -1 19 -3 4 -6 -2 -5 -13z"/>
<path d="M4590 3971 c0 -9 30 -24 36 -18 2 1 -6 8 -16 15 -11 7 -20 8 -20 3z"/>
<path d="M4572 3925 c0 -16 2 -22 5 -12 2 9 2 23 0 30 -3 6 -5 -1 -5 -18z"/>
<path d="M4662 3884 c-1 -34 -4 -77 -7 -95 l-5 -34 10 33 c6 18 9 61 7 95 l-3
62 -2 -61z"/>
<path d="M4583 3850 c0 -25 2 -35 4 -22 2 12 2 32 0 45 -2 12 -4 2 -4 -23z"/>
<path d="M4471 3866 c-7 -8 -21 -12 -34 -9 -19 5 -18 2 8 -18 17 -13 33 -28
37 -34 4 -5 8 4 8 20 0 23 -3 27 -10 15 -8 -12 -10 -12 -10 -1 0 8 8 20 18 27
9 7 12 14 6 14 -6 0 -17 -6 -23 -14z"/>
<path d="M1650 3700 l0 -110 330 0 330 0 0 110 0 110 -330 0 -330 0 0 -110z
m168 49 c72 -24 132 -46 132 -50 0 -3 -27 -14 -60 -24 -33 -10 -58 -20 -56
-22 2 -3 36 6 75 18 l71 23 86 -28 c47 -15 87 -26 90 -24 2 3 -30 15 -71 28
-41 13 -75 26 -75 30 0 3 60 25 133 49 72 24 138 46 145 48 9 4 12 -19 12 -95
l0 -101 -320 0 -320 0 0 101 c0 76 3 99 13 95 6 -2 72 -24 145 -48z m300 3
l-138 -46 -137 46 -138 46 275 0 275 0 -137 -46z"/>
<path d="M3157 3782 c-10 -11 -16 -34 -16 -53 l1 -34 8 39 c4 22 16 45 26 53
10 7 13 13 7 13 -5 0 -17 -8 -26 -18z"/>
<path d="M4641 3734 c0 -11 3 -14 6 -6 3 7 2 16 -1 19 -3 4 -6 -2 -5 -13z"/>
<path d="M4960 3595 l0 -75 43 2 42 1 -37 4 c-36 4 -38 6 -38 38 0 32 2 34 38
38 l37 4 -37 1 c-33 2 -38 5 -38 26 0 21 5 25 38 29 l37 4 -42 1 -43 2 0 -75z"/>
<path d="M5072 3658 c-18 -18 -15 -26 23 -62 25 -22 34 -37 29 -49 -8 -22 -40
-22 -54 1 -7 10 -10 11 -7 3 6 -24 35 -37 55 -25 29 19 26 50 -7 75 -17 13
-31 31 -31 41 0 21 20 24 39 6 11 -11 13 -10 9 2 -6 19 -40 24 -56 8z"/>
<path d="M5173 3663 c14 -4 17 -16 17 -74 0 -39 4 -69 10 -69 6 0 10 30 10 69
0 58 3 70 18 74 9 3 -3 5 -28 5 -25 0 -37 -2 -27 -5z"/>
<path d="M5410 3595 c0 -43 4 -75 10 -75 6 0 10 17 10 38 l0 37 35 -40 c19
-22 34 -36 35 -31 0 6 -10 21 -22 34 -16 18 -19 26 -10 29 16 6 42 32 42 43 0
20 -34 40 -66 40 l-34 0 0 -75z m75 35 c0 -20 -6 -26 -27 -28 -25 -3 -28 0
-28 28 0 28 3 31 28 28 21 -2 27 -8 27 -28z"/>
<path d="M5574 3623 c-9 -26 -23 -63 -31 -82 -7 -19 -11 -36 -8 -39 3 -3 6 -3
8 -1 10 12 59 161 54 165 -3 3 -13 -16 -23 -43z"/>
<path d="M5661 3657 c-33 -16 -46 -59 -29 -93 7 -15 20 -30 28 -32 12 -4 11
-1 -2 15 -26 28 -23 78 4 97 29 21 57 20 80 -1 10 -9 18 -11 18 -5 0 14 -32
32 -57 32 -10 0 -29 -6 -42 -13z"/>
<path d="M5834 3660 c-11 -4 -26 -22 -33 -38 -11 -25 -10 -35 3 -61 9 -17 22
-31 28 -31 6 0 4 8 -5 18 -39 43 -8 112 49 112 23 0 64 -42 64 -65 0 -23 -40
-64 -68 -68 l-27 -4 28 -2 c18 0 37 8 52 24 62 61 -8 149 -91 115z"/>
<path d="M5985 3613 c-4 -32 -9 -66 -11 -75 -3 -10 -1 -18 5 -18 6 0 11 11 11
24 0 13 3 38 7 56 l6 33 27 -59 28 -59 22 53 c13 28 27 52 31 52 5 0 9 -17 9
-37 0 -21 5 -45 11 -53 7 -11 8 6 3 55 -3 39 -9 73 -13 78 -4 4 -20 -21 -35
-55 l-28 -63 -28 58 c-16 32 -31 61 -33 64 -3 2 -8 -22 -12 -54z"/>
<path d="M6170 3595 l0 -75 48 2 c43 1 44 2 10 5 -36 4 -38 6 -38 38 0 32 2
34 38 38 l37 4 -37 1 c-33 2 -38 5 -38 26 0 21 5 25 38 29 34 3 33 4 -10 5
l-48 2 0 -75z"/>
<path d="M6280 3595 l0 -75 40 0 c47 0 90 34 90 72 0 27 -26 68 -42 68 -6 0
-4 -8 5 -18 21 -23 22 -76 1 -96 -8 -9 -29 -16 -45 -16 l-29 0 0 64 c0 63 1
65 28 69 22 3 20 4 -10 6 l-38 1 0 -75z"/>
<path d="M6455 3645 c-14 -13 -25 -36 -25 -50 0 -36 42 -75 77 -74 l28 2 -27
4 c-28 4 -68 45 -68 68 0 23 41 65 64 65 57 0 88 -69 49 -112 -14 -16 -14 -18
-1 -13 26 10 41 54 28 85 -21 52 -86 65 -125 25z"/>
<path d="M6622 3593 c1 -43 3 -61 5 -40 2 20 8 37 12 37 5 0 19 -16 32 -35 13
-19 28 -35 33 -35 4 0 -3 15 -17 33 l-25 33 21 10 c48 21 27 74 -29 74 l-34 0
2 -77z m73 47 c9 -28 -2 -40 -36 -40 -26 0 -29 3 -27 30 2 25 6 30 29 30 19 0
30 -6 34 -20z"/>
<path d="M5282 3594 c-18 -37 -31 -69 -28 -71 3 -3 11 6 17 21 17 37 74 38 91
1 6 -14 15 -25 19 -25 4 0 -7 31 -24 70 -18 38 -34 70 -37 70 -3 0 -20 -30
-38 -66z m48 27 c0 -5 3 -16 6 -25 5 -12 0 -16 -20 -16 -24 0 -25 2 -14 25 11
24 28 34 28 16z"/>
<path d="M4514 3588 l-19 -23 23 19 c12 11 22 21 22 23 0 8 -8 2 -26 -19z"/>
<path d="M5741 3546 c-7 -8 -25 -17 -39 -19 l-27 -4 26 -2 c26 -1 69 23 58 33
-3 4 -12 0 -18 -8z"/>
<path d="M5163 3413 c-7 -2 -13 -10 -13 -16 0 -8 4 -7 12 1 17 17 45 15 52 -3
3 -8 -4 -21 -15 -28 -20 -14 -20 -14 1 -20 17 -4 21 -12 18 -34 -4 -34 -31
-42 -60 -16 -16 14 -20 14 -16 3 2 -8 17 -19 32 -25 22 -7 30 -5 48 13 18 18
20 25 10 46 -6 14 -9 33 -6 41 12 31 -26 53 -63 38z"/>
<path d="M5330 3405 c-6 -8 -10 -20 -7 -27 4 -9 6 -7 6 4 1 24 40 34 58 15 18
-18 13 -30 -40 -86 l-38 -41 53 2 c44 1 47 2 15 5 l-38 4 35 40 c40 44 46 73
17 89 -27 14 -46 13 -61 -5z"/>
<path d="M5470 3378 c-16 -22 -30 -51 -30 -63 0 -30 24 -49 54 -41 44 11 44
61 0 72 l-24 6 21 34 c29 48 15 42 -21 -8z m35 -68 c0 -18 -6 -26 -23 -28 -13
-2 -25 3 -28 12 -10 26 4 48 28 44 17 -2 23 -10 23 -28z"/>
<path d="M5991 3376 c-17 -24 -31 -54 -31 -66 0 -28 40 -46 69 -31 36 20 21
71 -22 71 -17 0 -17 2 3 31 12 16 20 32 17 35 -3 3 -19 -15 -36 -40z m37 -48
c14 -14 -2 -48 -22 -48 -20 0 -37 25 -30 44 7 19 35 21 52 4z"/>
<path d="M6144 3406 c-15 -12 -17 -18 -8 -33 9 -14 8 -23 -4 -41 -13 -20 -13
-24 3 -42 23 -25 57 -26 78 -2 21 23 21 36 2 52 -11 9 -12 16 -3 30 24 38 -28
65 -68 36z m54 -19 c4 -20 -25 -34 -40 -19 -15 15 -1 44 19 40 10 -2 19 -11
21 -21z m0 -46 c8 -4 12 -19 10 -32 -2 -19 -9 -24 -33 -24 -24 0 -31 5 -33 24
-4 23 11 41 33 41 6 0 16 -4 23 -9z"/>
<path d="M6259 3403 c-13 -15 -12 -15 7 -3 25 15 54 7 54 -15 0 -9 -10 -20
-22 -25 -16 -6 -18 -9 -7 -9 27 -1 42 -27 29 -50 -13 -26 -45 -27 -59 -4 -5
10 -12 15 -16 12 -9 -10 24 -39 45 -39 36 0 68 58 41 74 -5 3 -7 15 -4 26 11
42 -41 67 -68 33z"/>
<path d="M1683 3370 c0 -25 2 -35 4 -22 2 12 2 32 0 45 -2 12 -4 2 -4 -23z"/>
<path d="M2453 3370 c0 -25 2 -35 4 -22 2 12 2 32 0 45 -2 12 -4 2 -4 -23z"/>
<path d="M5550 3323 c0 -62 17 -72 22 -12 2 26 10 46 20 53 23 14 31 4 39 -52
l6 -47 2 41 c2 79 61 88 61 9 0 -25 5 -45 10 -45 13 0 13 51 0 84 -10 27 -38
34 -58 14 -8 -8 -15 -8 -24 0 -8 6 -28 10 -46 10 -32 -1 -32 -1 -32 -55z"/>
<path d="M5809 3354 l21 -26 -20 -26 c-11 -14 -18 -27 -15 -30 2 -3 13 6 24
19 l19 24 21 -25 c11 -14 20 -21 21 -16 0 5 -8 18 -17 28 -16 18 -16 21 -1 49
19 33 10 40 -10 8 l-14 -21 -14 21 c-8 11 -20 21 -25 21 -6 0 -1 -12 10 -26z"/>
<path d="M6369 3343 c-3 -23 -1 -50 3 -60 4 -12 7 -3 7 23 1 44 21 70 46 60
10 -4 15 -20 15 -52 0 -55 7 -55 14 -1 6 45 13 57 31 57 17 0 38 -36 32 -53
-2 -7 -1 -21 4 -32 6 -14 8 -5 6 29 -2 58 -24 79 -58 58 -16 -11 -24 -11 -36
-1 -11 10 -19 10 -33 1 -14 -9 -20 -8 -23 1 -2 7 -6 -7 -8 -30z"/>
<path d="M1683 3270 c0 -25 2 -35 4 -22 2 12 2 32 0 45 -2 12 -4 2 -4 -23z"/>
<path d="M2453 3270 c0 -25 2 -35 4 -22 2 12 2 32 0 45 -2 12 -4 2 -4 -23z"/>
<path d="M5273 3283 c-3 -10 -8 -22 -10 -28 -3 -5 3 -1 11 9 16 20 21 36 11
36 -3 0 -8 -8 -12 -17z"/>
<path d="M6085 3280 c-4 -12 -5 -24 -2 -27 3 -2 8 5 12 17 4 12 5 24 2 27 -3
2 -8 -5 -12 -17z"/>
<path d="M1683 3170 c0 -25 2 -35 4 -22 2 12 2 32 0 45 -2 12 -4 2 -4 -23z"/>
<path d="M2453 3170 c0 -25 2 -35 4 -22 2 12 2 32 0 45 -2 12 -4 2 -4 -23z"/>
<path d="M1683 3070 c0 -25 2 -35 4 -22 2 12 2 32 0 45 -2 12 -4 2 -4 -23z"/>
<path d="M2453 3070 c0 -25 2 -35 4 -22 2 12 2 32 0 45 -2 12 -4 2 -4 -23z"/>
<path d="M1683 2970 c0 -25 2 -35 4 -22 2 12 2 32 0 45 -2 12 -4 2 -4 -23z"/>
<path d="M2453 2970 c0 -25 2 -35 4 -22 2 12 2 32 0 45 -2 12 -4 2 -4 -23z"/>
<path d="M1701 2893 c2 -24 2 -25 6 -5 3 15 11 22 28 22 17 0 25 -7 28 -22 4
-20 4 -19 6 5 1 25 -2 27 -34 27 -32 0 -35 -2 -34 -27z"/>
<path d="M1681 2848 l-1 -68 38 2 c36 1 36 1 5 5 -30 4 -33 7 -32 36 2 30 2
31 6 5 4 -24 9 -28 39 -28 31 0 34 3 33 28 -2 23 -2 24 -6 5 -3 -16 -11 -23
-29 -23 -32 0 -34 37 -1 43 16 3 14 5 -10 6 -26 1 -32 6 -36 29 -2 15 -5 -3
-6 -40z"/>
<path d="M2450 2886 c0 -21 -5 -25 -37 -29 l-38 -4 38 -1 c34 -2 37 -4 37 -31
0 -27 -4 -30 -37 -34 l-38 -4 43 -1 42 -2 0 65 c0 36 -2 65 -5 65 -3 0 -5 -11
-5 -24z"/>
<path d="M1798 2853 c12 -2 32 -2 45 0 12 2 2 4 -23 4 -25 0 -35 -2 -22 -4z"/>
<path d="M1898 2853 c12 -2 32 -2 45 0 12 2 2 4 -23 4 -25 0 -35 -2 -22 -4z"/>
<path d="M1998 2853 c12 -2 30 -2 40 0 9 3 -1 5 -23 4 -22 0 -30 -2 -17 -4z"/>
<path d="M2098 2853 c12 -2 32 -2 45 0 12 2 2 4 -23 4 -25 0 -35 -2 -22 -4z"/>
<path d="M2198 2853 c12 -2 32 -2 45 0 12 2 2 4 -23 4 -25 0 -35 -2 -22 -4z"/>
<path d="M2298 2853 c12 -2 32 -2 45 0 12 2 2 4 -23 4 -25 0 -35 -2 -22 -4z"/>
<path d="M2688 2813 c12 -2 32 -2 45 0 12 2 2 4 -23 4 -25 0 -35 -2 -22 -4z"/>
<path d="M2788 2813 c12 -2 32 -2 45 0 12 2 2 4 -23 4 -25 0 -35 -2 -22 -4z"/>
<path d="M2888 2813 c12 -2 32 -2 45 0 12 2 2 4 -23 4 -25 0 -35 -2 -22 -4z"/>
<path d="M2988 2813 c12 -2 32 -2 45 0 12 2 2 4 -23 4 -25 0 -35 -2 -22 -4z"/>
<path d="M1785 2779 c8 -12 145 -12 164 0 10 6 -18 10 -77 10 -54 0 -90 -4
-87 -10z"/>
<path d="M1998 2783 c12 -2 30 -2 40 0 9 3 -1 5 -23 4 -22 0 -30 -2 -17 -4z"/>
<path d="M2098 2783 c12 -2 32 -2 45 0 12 2 2 4 -23 4 -25 0 -35 -2 -22 -4z"/>
<path d="M2198 2783 c12 -2 32 -2 45 0 12 2 2 4 -23 4 -25 0 -35 -2 -22 -4z"/>
<path d="M2298 2783 c12 -2 32 -2 45 0 12 2 2 4 -23 4 -25 0 -35 -2 -22 -4z"/>
<path d="M2090 2685 c0 -43 4 -75 10 -75 6 0 10 14 10 32 l0 32 33 -32 c48
-46 58 -39 12 8 l-39 40 34 35 c40 41 29 48 -12 8 l-28 -27 0 27 c0 15 -4 27
-10 27 -6 0 -10 -32 -10 -75z"/>
<path d="M2210 2685 c0 -43 4 -75 10 -75 6 0 10 32 10 75 0 43 -4 75 -10 75
-6 0 -10 -32 -10 -75z"/>
<path d="M2263 2753 c14 -4 17 -16 17 -74 0 -39 4 -69 10 -69 6 0 10 30 10 69
0 58 3 70 18 74 9 3 -3 5 -28 5 -25 0 -37 -2 -27 -5z"/>
<path d="M2376 2739 c-47 -37 -30 -110 29 -125 30 -7 77 8 83 26 4 11 -1 10
-21 -3 -35 -22 -58 -22 -85 3 -61 57 17 142 86 94 13 -9 22 -11 22 -4 0 12
-42 30 -69 30 -10 0 -30 -9 -45 -21z"/>
<path d="M2520 2685 c0 -43 4 -75 10 -75 6 0 10 16 10 35 0 33 2 35 35 35 33
0 35 -2 35 -35 0 -19 5 -35 10 -35 6 0 10 32 10 75 0 43 -4 75 -10 75 -5 0
-10 -16 -10 -35 0 -33 -2 -35 -35 -35 -33 0 -35 2 -35 35 0 19 -4 35 -10 35
-6 0 -10 -32 -10 -75z"/>
<path d="M2660 2685 l0 -75 48 2 c43 1 44 2 10 5 -36 4 -38 6 -38 38 0 32 2
34 38 38 l37 4 -37 1 c-33 2 -38 5 -38 26 0 21 5 25 38 29 34 3 33 4 -10 5
l-48 2 0 -75z"/>
<path d="M2882 2705 l-2 -60 -49 55 -49 55 -3 -64 c-2 -34 -1 -68 3 -75 4 -6
8 16 8 49 l0 60 48 -54 c27 -30 50 -51 53 -45 2 5 2 38 -2 74 l-6 65 -1 -60z"/>
<path d="M2930 2685 l0 -75 48 2 47 1 -40 6 c-36 5 -40 9 -43 38 -3 31 -2 32
40 36 l43 4 -42 1 c-39 2 -43 5 -43 27 0 24 3 25 61 25 l60 0 -2 -65 c-1 -36
1 -68 4 -72 8 -8 9 3 7 80 l-1 57 41 0 41 0 -2 -65 c-1 -36 1 -68 4 -72 8 -8
9 3 7 79 -1 52 1 57 22 61 13 2 -39 5 -114 6 l-138 1 0 -75z"/>
<path d="M3218 2695 c-1 -36 -1 -70 0 -75 2 -6 22 -9 45 -8 l42 1 -37 4 c-36
4 -38 6 -38 38 0 32 2 34 38 38 l37 4 -37 1 c-33 2 -38 5 -38 26 0 21 5 25 38
29 l37 4 -42 1 -41 2 -4 -65z"/>
<path d="M5503 2660 c-24 -10 -43 -25 -43 -32 0 -7 -32 -45 -71 -84 l-71 -71
-46 13 c-25 8 -57 14 -71 13 -14 0 2 -7 36 -14 34 -8 94 -30 133 -51 124 -65
243 -217 265 -337 4 -21 10 -36 12 -33 3 3 0 26 -6 52 l-12 47 72 73 c40 40
76 71 81 68 10 -6 48 55 47 76 0 8 -7 -2 -16 -22 -16 -41 -40 -53 -28 -15 9
29 17 77 9 57 -23 -61 -52 -103 -107 -158 l-64 -64 -33 58 c-42 75 -130 162
-202 199 l-58 30 72 72 c39 39 74 71 77 71 3 -1 22 6 41 15 19 9 29 16 22 17
-7 0 -22 -5 -33 -10 -11 -6 -24 -8 -31 -4 -16 10 35 34 91 44 42 7 43 8 11 9
-19 0 -54 -8 -77 -19z"/>
<path d="M4565 2654 c-16 -8 -56 -40 -87 -72 -58 -57 -88 -105 -88 -139 1 -10
7 0 15 21 18 53 138 173 191 191 22 8 30 14 19 14 -11 1 -33 -6 -50 -15z"/>
<path d="M4681 2661 c42 -13 70 -31 64 -41 -4 -6 -19 -3 -37 6 -21 11 -47 15
-81 11 -46 -4 -55 -10 -124 -80 -70 -69 -76 -78 -80 -124 -4 -34 0 -60 11 -81
9 -18 12 -33 6 -37 -11 -7 -30 27 -41 70 -6 25 -7 26 -8 7 -1 -31 27 -90 44
-94 19 -4 175 -157 175 -172 0 -6 19 27 41 73 71 145 198 247 355 285 32 8 51
15 41 15 -10 1 -48 -7 -83 -16 l-64 -17 -70 69 c-39 38 -70 77 -70 86 0 18
-57 50 -87 48 -12 0 -10 -3 8 -8z m28 -46 c16 -8 30 -12 33 -10 2 2 37 -29 78
-70 41 -41 72 -76 69 -78 -2 -2 -28 -18 -56 -36 -69 -43 -151 -133 -187 -204
-15 -31 -31 -57 -35 -57 -4 0 -42 36 -86 80 -44 44 -76 80 -72 80 4 0 1 13 -8
30 -19 37 -19 93 -1 128 16 30 110 123 141 140 28 16 91 15 124 -3z"/>
<path d="M5645 2654 c46 -23 145 -124 166 -169 10 -22 19 -33 19 -25 0 47
-155 210 -200 210 -8 0 -1 -7 15 -16z"/>
<path d="M5568 2643 c6 -2 18 -2 25 0 6 3 1 5 -13 5 -14 0 -19 -2 -12 -5z"/>
<path d="M5630 2625 c45 -24 143 -128 156 -165 7 -19 13 -27 14 -17 0 10 -6
30 -14 46 -20 38 -143 151 -164 151 -12 -1 -10 -4 8 -15z"/>
<path d="M1653 2550 c0 -47 2 -66 4 -42 2 23 2 61 0 85 -2 23 -4 4 -4 -43z"/>
<path d="M2028 2499 c-19 -11 -25 -39 -8 -39 6 0 9 5 8 11 -5 20 29 34 46 20
25 -21 20 -38 -25 -86 l-42 -45 54 2 c42 1 46 2 17 5 l-37 4 35 46 c32 41 33
47 21 67 -16 24 -44 30 -69 15z"/>
<path d="M2198 2499 c-28 -16 -22 -49 11 -62 l30 -11 -21 -29 c-11 -15 -18
-31 -15 -33 3 -3 21 18 41 47 32 47 34 55 22 74 -15 23 -43 29 -68 14z m52
-14 c16 -20 6 -45 -19 -45 -26 0 -45 32 -29 48 16 16 33 15 48 -3z"/>
<path d="M2332 2503 l38 -4 -35 -70 c-20 -38 -32 -69 -27 -69 4 0 24 34 45 75
l37 75 -48 -2 c-43 -1 -44 -2 -10 -5z"/>
<path d="M2837 2492 c-19 -21 -22 -32 -8 -32 5 0 11 9 14 21 8 30 51 22 55
-10 3 -17 -8 -36 -39 -67 l-43 -44 54 2 c44 1 48 2 17 5 l-38 4 35 40 c40 43
44 60 20 83 -21 21 -47 20 -67 -2z"/>
<path d="M3007 2492 c-19 -21 -22 -32 -8 -32 5 0 11 9 14 21 8 30 51 22 55
-10 3 -17 -8 -36 -39 -67 l-43 -44 54 2 c44 1 48 2 17 5 l-38 4 35 40 c40 43
44 60 20 83 -21 21 -47 20 -67 -2z"/>
<path d="M3124 2496 c-15 -12 -17 -18 -8 -33 8 -14 8 -23 -2 -39 -12 -17 -11
-23 2 -42 21 -30 59 -28 80 4 16 23 16 27 1 41 -12 12 -13 20 -4 34 23 37 -29
64 -69 35z m54 -19 c4 -20 -25 -34 -40 -19 -15 15 -1 44 19 40 10 -2 19 -11
21 -21z m0 -46 c8 -4 12 -19 10 -32 -2 -19 -9 -24 -33 -24 -24 0 -31 5 -33 24
-4 23 11 41 33 41 6 0 16 -4 23 -9z"/>
<path d="M5108 2503 c12 -2 30 -2 40 0 9 3 -1 5 -23 4 -22 0 -30 -2 -17 -4z"/>
<path d="M2422 2411 c1 -49 2 -51 5 -14 8 79 63 87 63 8 0 -25 5 -45 10 -45 6
0 10 20 10 44 0 36 4 46 20 51 31 10 40 -2 42 -53 1 -39 2 -41 5 -13 7 54 -4
81 -32 81 -13 0 -27 -5 -30 -10 -5 -7 -11 -8 -19 -1 -6 5 -26 9 -44 9 l-32 -1
2 -56z"/>
<path d="M2675 2444 c16 -25 16 -28 -4 -55 -12 -16 -18 -29 -13 -29 5 0 17 10
26 23 l16 22 16 -22 c9 -13 21 -23 26 -23 5 0 0 14 -12 30 -22 31 -19 48 15
72 6 5 4 8 -4 8 -8 0 -20 -8 -27 -17 -13 -17 -15 -17 -28 0 -21 27 -30 20 -11
-9z"/>
<path d="M3230 2413 c0 -62 17 -72 22 -12 2 26 10 46 20 53 23 14 31 4 39 -52
l6 -47 2 41 c2 79 61 88 61 9 0 -25 5 -45 10 -45 13 0 13 51 0 84 -10 27 -38
34 -58 14 -8 -8 -15 -8 -24 0 -8 6 -28 10 -46 10 -32 -1 -32 -1 -32 -55z"/>
<path d="M1653 2380 c0 -47 2 -66 4 -42 2 23 2 61 0 85 -2 23 -4 4 -4 -43z"/>
<path d="M2135 2370 c-4 -12 -5 -24 -2 -27 3 -2 8 5 12 17 4 12 5 24 2 27 -3
2 -8 -5 -12 -17z"/>
<path d="M2951 2383 c-1 -6 -4 -20 -7 -30 -5 -17 -5 -17 6 0 6 10 9 23 6 30
-3 9 -5 9 -5 0z"/>
<path d="M3130 2330 c30 -3 66 -3 80 1 15 4 -6 7 -55 7 -77 -1 -78 -1 -25 -8z"/>
<path d="M2955 2311 c-59 -36 -168 -191 -134 -191 5 0 9 8 9 18 0 32 96 148
142 171 24 11 36 21 28 21 -8 0 -29 -8 -45 -19z"/>
<path d="M3250 2319 c8 -5 36 -21 61 -34 57 -30 99 -80 176 -209 10 -17 13
-18 13 -4 0 9 -11 29 -24 45 -13 15 -38 51 -55 80 -17 28 -43 58 -57 68 -55
36 -162 87 -114 54z"/>
<path d="M3215 2295 c17 -13 34 -24 38 -25 5 0 -5 11 -21 25 -17 14 -34 25
-38 25 -5 0 5 -11 21 -25z"/>
<path d="M3118 2293 c7 -3 16 -2 19 1 4 3 -2 6 -13 5 -11 0 -14 -3 -6 -6z"/>
<path d="M1653 2210 c0 -47 2 -66 4 -42 2 23 2 61 0 85 -2 23 -4 4 -4 -43z"/>
<path d="M3049 2275 c-28 -15 -49 -60 -49 -102 0 -51 60 -135 98 -138 9 0 23
-4 29 -8 21 -13 54 16 85 77 16 32 28 60 25 62 -2 2 -16 -23 -32 -55 -26 -56
-30 -59 -69 -63 -55 -6 -61 -3 -96 50 -46 70 -38 135 22 172 38 23 27 27 -13
5z"/>
<path d="M3178 2275 c22 -10 38 -27 52 -57 21 -49 27 -44 6 6 -15 35 -50 66
-76 66 -8 -1 0 -7 18 -15z"/>
<path d="M1653 2040 c0 -47 2 -66 4 -42 2 23 2 61 0 85 -2 23 -4 4 -4 -43z"/>
<path d="M7263 2040 c0 -47 2 -66 4 -42 2 23 2 61 0 85 -2 23 -4 4 -4 -43z"/>
<path d="M4601 2094 c0 -11 3 -14 6 -6 3 7 2 16 -1 19 -3 4 -6 -2 -5 -13z"/>
<path d="M2812 2080 c0 -14 2 -19 5 -12 2 6 2 18 0 25 -3 6 -5 1 -5 -13z"/>
<path d="M3276 2059 c-28 -28 -24 -42 4 -16 12 10 12 9 0 -6 -7 -10 -19 -16
-26 -13 -8 3 -30 -1 -51 -9 -21 -7 -31 -14 -23 -15 10 -1 9 -4 -5 -10 l-20 -9
20 0 c36 0 130 52 129 72 -2 25 3 22 36 -25 17 -24 43 -50 58 -59 15 -8 33
-26 39 -40 12 -22 13 -22 13 -3 0 11 -5 25 -12 32 -8 8 -5 14 15 21 14 6 31
20 37 32 10 17 14 19 21 8 17 -27 9 -131 -15 -203 -22 -63 -45 -170 -30 -138
4 9 46 12 160 12 l154 0 0 -315 0 -315 -1060 0 -1060 0 0 315 0 315 164 0 165
0 4 -42 4 -43 1 43 2 42 319 0 320 0 4 -42 4 -43 1 43 2 42 119 0 c87 0 121
-3 124 -12 2 -7 2 -106 -1 -219 -3 -114 -2 -218 1 -231 10 -38 47 -48 172 -48
l115 0 -3 -47 c-2 -47 -1 -48 28 -48 24 0 31 5 33 24 2 13 -1 28 -7 34 -31 31
-12 37 117 39 l127 2 -130 6 -130 6 131 2 c85 1 134 6 142 14 8 8 13 68 14
193 l3 180 2 -179 c3 -156 1 -181 -13 -197 -10 -11 -12 -19 -6 -19 25 0 32 45
32 212 0 141 -3 178 -16 196 -8 12 -21 22 -29 22 -7 0 -16 10 -18 23 -4 19 -4
18 -6 -5 -1 -20 4 -28 17 -28 13 0 14 -2 4 -9 -11 -7 -11 -9 2 -14 14 -6 16
-31 16 -181 0 -163 -1 -176 -19 -186 -11 -5 -72 -10 -135 -10 l-116 0 0 65 c0
36 5 74 12 84 13 21 5 51 -14 51 -9 0 -9 -3 0 -12 18 -18 15 -25 -13 -30 -19
-4 -25 -1 -25 13 0 9 5 20 10 22 6 3 5 4 -2 3 -10 -2 -12 -27 -9 -99 l3 -97
-112 0 c-61 0 -120 5 -131 10 -18 10 -19 23 -19 171 l0 160 29 -16 c20 -10 32
-11 36 -5 4 6 3 10 -2 9 -37 -6 -73 33 -73 81 0 33 -42 146 -89 238 -12 23
-21 57 -21 76 l0 34 43 -21 c23 -12 45 -26 49 -32 4 -6 8 -2 8 8 0 9 4 17 10
17 5 0 19 23 31 51 12 28 25 46 28 40 9 -14 77 -37 131 -45 42 -5 43 -5 15 6
-16 6 -36 19 -43 30 -8 10 -24 18 -40 17 l-27 -1 29 -7 c17 -3 28 -10 26 -16
-5 -11 -17 -9 -58 6 -21 8 -23 12 -12 19 12 8 10 10 -7 10 -16 0 -29 -14 -50
-52 -32 -60 -56 -70 -95 -38 -19 14 -28 32 -30 58 -3 27 -6 17 -12 -39 -8 -72
-7 -78 24 -145 18 -38 38 -84 46 -101 l14 -33 -140 0 c-118 0 -140 2 -140 15
0 11 -10 15 -37 13 -37 -1 -37 -1 -5 -5 17 -2 32 -8 32 -14 0 -5 -109 -9 -270
-9 -161 0 -270 4 -270 9 0 6 15 12 33 14 31 4 31 4 -5 5 -28 2 -38 -2 -38 -13
0 -13 -28 -15 -189 -15 l-190 0 -4 43 c-2 23 -4 -123 -5 -325 l-2 -368 2245 0
2245 0 0 -100 0 -100 -2247 -3 -2248 -2 2275 0 2275 0 3 33 c3 25 -1 32 -14
32 -15 0 -17 11 -12 108 2 59 3 92 1 75 l-4 -33 -1190 0 -1189 0 0 320 0 320
-159 0 -160 0 19 63 c10 34 23 75 29 90 14 37 14 139 -1 172 -12 27 -28 33
-28 11 0 -23 -51 -57 -79 -54 -18 2 -36 19 -61 55 -19 29 -37 52 -40 51 -3 0
-18 -13 -34 -29z m224 -469 c0 -5 -2 -10 -4 -10 -3 0 -8 5 -11 10 -3 6 -1 10
4 10 6 0 11 -4 11 -10z m-577 -379 c11 -14 10 -14 -5 -2 -16 12 -18 32 -16
190 l2 176 3 -174 c3 -118 7 -180 16 -190z m287 89 c0 -27 -4 -50 -10 -50 -5
0 -10 23 -10 50 0 28 5 50 10 50 6 0 10 -22 10 -50z m-3 -82 c-3 -8 -6 -5 -6
6 -1 11 2 17 5 13 3 -3 4 -12 1 -19z m-84 -25 c-35 -2 -91 -2 -125 0 -35 2 -7
3 62 3 69 0 97 -1 63 -3z m84 -35 c-3 -8 -6 -5 -6 6 -1 11 2 17 5 13 3 -3 4
-12 1 -19z m13 -44 c0 -8 -7 -14 -15 -14 -15 0 -21 21 -9 33 10 9 24 -2 24
-19z m2955 -214 c9 0 15 -10 15 -25 0 -18 -5 -25 -20 -25 -19 0 -20 6 -18 103
2 95 2 97 5 25 3 -60 7 -78 18 -78z"/>
<path d="M4592 2040 c0 -19 2 -27 5 -17 2 9 2 25 0 35 -3 9 -5 1 -5 -18z"/>
<path d="M5653 1970 c0 -47 2 -66 4 -42 2 23 2 61 0 85 -2 23 -4 4 -4 -43z"/>
<path d="M1653 1870 c0 -47 2 -66 4 -42 2 23 2 61 0 85 -2 23 -4 4 -4 -43z"/>
<path d="M7263 1870 c0 -47 2 -66 4 -42 2 23 2 61 0 85 -2 23 -4 4 -4 -43z"/>
<path d="M4592 1900 c0 -19 2 -27 5 -17 2 9 2 25 0 35 -3 9 -5 1 -5 -18z"/>
<path d="M2891 1892 c-1 -21 32 -147 36 -136 2 6 -5 42 -16 80 -11 38 -20 63
-20 56z"/>
<path d="M3428 1830 c-1 -28 0 -50 5 -50 4 0 7 23 7 50 0 65 -7 65 -12 0z"/>
<path d="M5642 1860 c0 -14 2 -19 5 -12 2 6 2 18 0 25 -3 6 -5 1 -5 -13z"/>
<path d="M6993 1873 c26 -4 28 -7 25 -46 -3 -37 -6 -42 -25 -40 -22 3 -23 -1
-23 -62 0 -37 4 -65 10 -65 6 0 10 20 10 45 0 33 4 45 15 45 13 0 15 -50 15
-390 l0 -390 25 0 c21 0 25 -5 25 -30 0 -21 -5 -30 -16 -30 -11 0 -14 -8 -12
-32 l3 -33 165 0 c149 -1 152 -1 28 2 l-138 4 0 99 0 100 85 0 85 0 -1 28 c-2
23 -2 24 -6 5 -4 -22 -9 -23 -94 -23 l-89 0 0 345 c0 223 4 345 10 345 6 0 10
-20 10 -45 0 -33 4 -45 15 -45 12 0 15 14 15 66 0 62 -1 65 -22 62 -21 -3 -23
2 -26 45 l-3 47 -57 -1 c-31 -1 -44 -4 -29 -6z m77 -448 c0 -438 0 -445 -20
-445 -20 0 -20 7 -20 445 0 438 0 445 20 445 20 0 20 -7 20 -445z m48 298 l-1
-58 -6 50 c-6 48 -5 65 5 65 2 0 3 -26 2 -57z m-28 -774 c0 -90 -2 -100 -17
-97 -23 4 -31 48 -9 48 13 0 16 14 16 75 0 41 2 75 5 75 3 0 5 -45 5 -101z"/>
<path d="M6923 1863 c9 -2 23 -2 30 0 6 3 -1 5 -18 5 -16 0 -22 -2 -12 -5z"/>
<path d="M4601 1845 c0 -11 6 -37 13 -57 l13 -36 -61 -60 c-34 -33 -66 -58
-72 -56 -12 5 -44 -58 -44 -84 1 -9 7 0 15 21 15 43 22 53 31 44 4 -4 1 -20
-6 -36 -6 -17 -10 -36 -7 -43 3 -7 6 -4 6 7 1 11 8 31 17 43 8 12 13 26 10 30
-5 9 111 129 117 121 1 -2 20 -30 40 -62 51 -79 117 -140 193 -179 35 -18 64
-35 64 -38 0 -9 -130 -135 -138 -134 -4 0 -20 -5 -37 -13 -29 -14 -7 -12 28 2
32 13 18 -16 -15 -30 -18 -8 -27 -14 -20 -15 22 0 72 30 72 43 0 7 30 42 68
79 55 54 71 64 87 58 11 -5 31 -9 45 -9 14 0 1 7 -27 14 -171 46 -314 179
-370 343 -12 37 -22 58 -22 47z"/>
<path d="M6795 1836 c-92 -30 -117 -42 -196 -92 -111 -70 -201 -155 -266 -251
-61 -89 -138 -254 -129 -276 3 -8 5 -7 5 2 2 29 76 188 115 246 116 174 302
312 496 369 47 14 76 25 65 25 -11 0 -51 -10 -90 -23z"/>
<path d="M5617 1781 c-54 -154 -205 -286 -372 -327 -39 -10 -43 -12 -20 -13
17 0 61 13 99 29 38 16 71 28 73 26 2 -1 -4 -22 -12 -46 -8 -23 -15 -50 -15
-60 0 -20 31 -50 51 -50 8 1 2 8 -13 16 -33 17 -35 36 -9 105 14 37 37 66 79
105 33 29 74 76 92 104 18 27 38 50 45 50 7 0 32 -7 55 -15 24 -8 45 -13 47
-11 2 2 -20 12 -49 21 -29 10 -54 19 -56 20 -1 1 5 19 13 39 9 21 15 42 13 47
-2 5 -11 -13 -21 -40z"/>
<path d="M7263 1700 c0 -47 2 -66 4 -42 2 23 2 61 0 85 -2 23 -4 4 -4 -43z"/>
<path d="M3418 1728 l-3 -23 -225 -3 c-223 -2 -225 -2 -242 20 -10 13 -18 18
-18 11 0 -6 14 -24 31 -40 29 -27 79 -101 79 -117 0 -5 -8 2 -18 14 -11 13
-24 20 -30 16 -19 -12 -14 -36 11 -46 12 -5 16 -9 8 -9 -8 -1 -12 -4 -9 -7 9
-8 48 19 48 33 0 10 33 13 135 13 128 0 135 -1 135 -20 0 -26 16 -26 31 1 9
17 13 19 20 8 7 -11 9 -10 9 4 0 24 -16 21 -34 -5 -23 -32 -20 -4 4 43 12 22
32 45 45 51 22 10 44 62 32 75 -3 2 -7 -6 -9 -19z m-54 -73 l-33 -35 -148 0
-148 0 -28 35 -28 35 209 0 209 0 -33 -35z m-101 -52 c-40 -2 -107 -2 -150 0
-43 1 -10 3 72 3 83 0 118 -2 78 -3z m-248 -23 c3 -5 -1 -10 -9 -10 -9 0 -16
5 -16 10 0 6 4 10 9 10 6 0 13 -4 16 -10z"/>
<path d="M2148 1723 c12 -2 32 -2 45 0 12 2 2 4 -23 4 -25 0 -35 -2 -22 -4z"/>
<path d="M2248 1723 c12 -2 32 -2 45 0 12 2 2 4 -23 4 -25 0 -35 -2 -22 -4z"/>
<path d="M2348 1723 c12 -2 32 -2 45 0 12 2 2 4 -23 4 -25 0 -35 -2 -22 -4z"/>
<path d="M2448 1723 c12 -2 32 -2 45 0 12 2 2 4 -23 4 -25 0 -35 -2 -22 -4z"/>
<path d="M5741 1691 c-10 -7 -5 -16 24 -42 21 -19 44 -47 51 -64 7 -16 13 -24
14 -17 0 21 -28 70 -51 86 -12 8 -19 20 -17 26 6 19 59 -30 79 -74 10 -23 19
-35 19 -27 0 25 -42 88 -70 104 -32 20 -31 19 -49 8z"/>
<path d="M2172 1378 l3 -273 145 0 145 0 3 273 2 272 -150 0 -150 0 2 -272z
m278 2 l0 -250 -130 0 -130 0 0 250 0 250 130 0 130 0 0 -250z"/>
<path d="M2266 1592 c-3 -6 -1 -14 5 -17 15 -10 25 3 12 16 -7 7 -13 7 -17 1z"/>
<path d="M2346 1592 c-3 -6 -1 -14 5 -17 15 -10 25 3 12 16 -7 7 -13 7 -17 1z"/>
<path d="M2270 1485 c-20 -25 -6 -31 17 -7 14 14 18 22 9 22 -8 0 -19 -7 -26
-15z"/>
<path d="M2350 1480 c25 -25 26 -52 2 -73 -26 -23 -58 -21 -76 5 -9 12 -16 18
-16 12 0 -18 35 -44 58 -44 51 0 81 70 44 103 -26 24 -36 21 -12 -3z"/>
<path d="M2266 1309 c-14 -11 -26 -24 -26 -29 0 -5 11 2 25 15 30 30 64 32 99
4 34 -27 36 -77 3 -107 -31 -29 -72 -28 -102 3 -14 13 -25 20 -25 15 0 -17 53
-50 82 -50 40 0 78 40 78 82 -1 74 -77 112 -134 67z"/>
<path d="M2231 1244 c0 -11 3 -14 6 -6 3 7 2 16 -1 19 -3 4 -6 -2 -5 -13z"/>
<path d="M7263 1530 c0 -47 2 -66 4 -42 2 23 2 61 0 85 -2 23 -4 4 -4 -43z"/>
<path d="M1993 1550 c0 -25 2 -35 4 -22 2 12 2 32 0 45 -2 12 -4 2 -4 -23z"/>
<path d="M2643 1550 c0 -25 2 -35 4 -22 2 12 2 32 0 45 -2 12 -4 2 -4 -23z"/>
<path d="M3450 1558 c0 -9 -10 -23 -22 -32 l-23 -17 23 11 c24 12 39 36 28 47
-3 4 -6 -1 -6 -9z"/>
<path d="M3357 1545 c-4 -8 -14 -15 -22 -15 -9 0 -13 -4 -10 -10 3 -5 23 -9
43 -9 31 2 33 3 9 6 -23 4 -26 7 -16 19 6 8 10 17 7 20 -3 3 -8 -2 -11 -11z"/>
<path d="M5862 1535 c0 -16 2 -22 5 -12 2 9 2 23 0 30 -3 6 -5 -1 -5 -18z"/>
<path d="M4481 1502 c-1 -34 15 -60 73 -120 51 -53 93 -82 118 -82 7 1 0 7
-17 14 -47 21 -156 138 -165 177 -6 25 -8 28 -9 11z"/>
<path d="M5821 1503 c-1 -6 -4 -20 -7 -30 -5 -17 -5 -17 6 0 6 10 9 23 6 30
-3 9 -5 9 -5 0z"/>
<path d="M4450 1484 c-1 -57 151 -214 207 -214 10 0 0 9 -22 19 -53 25 -153
128 -170 177 -9 25 -14 31 -15 18z"/>
<path d="M5841 1464 c-14 -49 -7 -56 9 -9 7 20 10 39 7 42 -3 3 -10 -12 -16
-33z"/>
<path d="M1993 1450 c0 -25 2 -35 4 -22 2 12 2 32 0 45 -2 12 -4 2 -4 -23z"/>
<path d="M2643 1450 c0 -25 2 -35 4 -22 2 12 2 32 0 45 -2 12 -4 2 -4 -23z"/>
<path d="M6648 1463 c12 -2 30 -2 40 0 9 3 -1 5 -23 4 -22 0 -30 -2 -17 -4z"/>
<path d="M6565 1444 c-74 -38 -116 -110 -114 -195 l2 -54 7 67 c8 86 42 137
113 173 28 14 44 25 36 25 -7 0 -27 -7 -44 -16z"/>
<path d="M6740 1444 c48 -21 89 -61 111 -109 10 -22 19 -34 19 -26 0 8 -11 34
-25 57 -25 42 -95 94 -126 94 -8 -1 2 -8 21 -16z"/>
<path d="M5786 1402 c-19 -55 -35 -73 -86 -97 -34 -15 -34 -16 -5 -10 42 9 81
50 100 103 8 25 13 47 11 49 -2 3 -11 -18 -20 -45z"/>
<path d="M5083 1433 c20 -2 54 -2 75 0 20 2 3 4 -38 4 -41 0 -58 -2 -37 -4z"/>
<path d="M7263 1360 c0 -47 2 -66 4 -42 2 23 2 61 0 85 -2 23 -4 4 -4 -43z"/>
<path d="M6638 1383 c-9 -21 -36 -82 -61 -135 -33 -70 -42 -98 -32 -98 8 0 23
20 34 45 l20 45 59 0 60 0 19 -45 c10 -25 24 -45 31 -45 6 0 12 2 12 4 0 7
-113 251 -120 259 -4 4 -14 -9 -22 -30z m46 -73 c9 -22 16 -43 16 -45 0 -3
-20 -5 -45 -5 l-45 0 22 45 c12 25 25 45 29 45 4 0 14 -18 23 -40z"/>
<path d="M5811 1379 c-14 -42 -52 -81 -101 -104 -31 -14 -32 -15 -6 -10 15 3
39 13 52 22 29 19 78 97 72 115 -3 7 -10 -3 -17 -23z"/>
<path d="M1993 1350 c0 -25 2 -35 4 -22 2 12 2 32 0 45 -2 12 -4 2 -4 -23z"/>
<path d="M2643 1350 c0 -25 2 -35 4 -22 2 12 2 32 0 45 -2 12 -4 2 -4 -23z"/>
<path d="M5440 1336 c0 -2 36 -16 80 -31 44 -15 80 -31 80 -36 0 -5 5 -9 10
-9 6 0 10 6 10 14 0 8 6 17 13 20 6 3 0 4 -14 1 -15 -3 -59 6 -99 20 -79 27
-80 27 -80 21z"/>
<path d="M1993 1250 c0 -25 2 -35 4 -22 2 12 2 32 0 45 -2 12 -4 2 -4 -23z"/>
<path d="M2643 1250 c0 -25 2 -35 4 -22 2 12 2 32 0 45 -2 12 -4 2 -4 -23z"/>
<path d="M6873 1255 c0 -22 2 -30 4 -17 2 12 2 30 0 40 -3 9 -5 -1 -4 -23z"/>
<path d="M4693 1263 c9 -2 23 -2 30 0 6 3 -1 5 -18 5 -16 0 -22 -2 -12 -5z"/>
<path d="M7263 1190 c0 -47 2 -66 4 -42 2 23 2 61 0 85 -2 23 -4 4 -4 -43z"/>
<path d="M6841 1158 c-32 -67 -82 -99 -169 -108 l-67 -7 53 -2 c60 -1 103 14
148 52 31 26 68 90 62 106 -2 4 -14 -14 -27 -41z"/>
<path d="M6185 1170 c-4 -17 -5 -34 -2 -36 2 -3 7 10 11 27 8 42 0 50 -9 9z"/>
<path d="M1992 1148 l-2 -48 38 2 c36 1 36 1 5 5 -29 4 -32 7 -36 46 l-4 42
-1 -47z"/>
<path d="M2640 1151 c0 -37 -2 -40 -32 -44 -32 -4 -32 -4 5 -5 l37 -2 0 45 c0
25 -2 45 -5 45 -3 0 -5 -18 -5 -39z"/>
<path d="M6460 1187 c0 -16 29 -63 57 -88 31 -29 72 -53 79 -46 3 2 -8 10 -25
16 -33 14 -72 53 -94 96 -9 17 -16 26 -17 22z"/>
<path d="M2098 1103 c12 -2 32 -2 45 0 12 2 2 4 -23 4 -25 0 -35 -2 -22 -4z"/>
<path d="M2498 1103 c12 -2 32 -2 45 0 12 2 2 4 -23 4 -25 0 -35 -2 -22 -4z"/>
</g>
</svg>
