<?xml version="1.0" encoding="UTF-8" standalone="no"?>
<!-- Created with Inkscape (http://www.inkscape.org/) -->

<svg
   version="1.1"
   id="svg1"
   width="1810.08"
   height="693.29333"
   viewBox="0 0 1810.08 693.29333"
   sodipodi:docname="vect.eps"
   xmlns:inkscape="http://www.inkscape.org/namespaces/inkscape"
   xmlns:sodipodi="http://sodipodi.sourceforge.net/DTD/sodipodi-0.dtd"
   xmlns="http://www.w3.org/2000/svg"
   xmlns:svg="http://www.w3.org/2000/svg">
  <defs
     id="defs1" />
  <sodipodi:namedview
     id="namedview1"
     pagecolor="#ffffff"
     bordercolor="#000000"
     borderopacity="0.25"
     inkscape:showpageshadow="2"
     inkscape:pageopacity="0.0"
     inkscape:pagecheckerboard="0"
     inkscape:deskcolor="#d1d1d1">
    <inkscape:page
       x="0"
       y="0"
       inkscape:label="1"
       id="page1"
       width="1810.08"
       height="693.29333"
       margin="0"
       bleed="0" />
  </sodipodi:namedview>
  <g
     id="g1"
     inkscape:groupmode="layer"
     inkscape:label="1">
    <g
       id="group-R5">
      <path
         id="path2"
         d="M 674.734,5195.21 1533.9,2698.69 2397.56,5195.21 H 3067.8 L 1916.25,2055.45 h -764.7 L 0,5195.21 h 674.734"
         style="fill:#040606;fill-opacity:1;fill-rule:nonzero;stroke:none"
         transform="matrix(0.13333333,0,0,-0.13333333,0,693.29333)" />
      <path
         id="path3"
         d="M 4075.39,5195.21 V 2055.45 h -629.75 v 3139.76 h 629.75"
         style="fill:#040606;fill-opacity:1;fill-rule:nonzero;stroke:none"
         transform="matrix(0.13333333,0,0,-0.13333333,0,693.29333)" />
      <path
         id="path4"
         d="m 5123.48,5195.21 859.18,-2496.52 863.67,2496.52 h 670.23 L 6365.01,2055.45 h -764.7 L 4448.75,5195.21 h 674.73"
         style="fill:#040606;fill-opacity:1;fill-rule:nonzero;stroke:none"
         transform="matrix(0.13333333,0,0,-0.13333333,0,693.29333)" />
      <path
         id="path5"
         d="m 8524.14,3746.79 h 526.3 c 170.92,0 298.36,41.95 382.35,125.94 83.92,83.93 125.94,199.41 125.94,346.38 0,146.89 -42.02,261.59 -125.94,344.1 -83.99,82.46 -211.43,123.71 -382.35,123.71 h -526.3 z M 9513.75,2055.45 8821.02,3278.98 H 8524.14 V 2055.45 h -629.76 v 3139.76 h 1178.55 c 242.9,0 449.82,-42.72 620.75,-128.19 170.94,-85.48 299.12,-200.94 384.62,-346.37 85.4,-145.49 128.2,-308.13 128.2,-488.06 0,-206.92 -60,-393.59 -180,-560.02 -119.93,-166.44 -298.39,-281.14 -535.24,-344.13 l 751.24,-1272.99 h -728.75"
         style="fill:#040606;fill-opacity:1;fill-rule:nonzero;stroke:none"
         transform="matrix(0.13333333,0,0,-0.13333333,0,693.29333)" />
      <path
         id="path6"
         d="m 12536.5,3144.03 -458.8,1326.98 -458.8,-1326.98 z m 166.5,-490.32 h -1250.6 l -206.9,-598.26 h -661.2 l 1129.1,3144.26 h 733.2 l 1129,-3144.26 h -665.7 l -206.9,598.26"
         style="fill:#040606;fill-opacity:1;fill-rule:nonzero;stroke:none"
         transform="matrix(0.13333333,0,0,-0.13333333,0,693.29333)" />
      <path
         id="path7"
         d="m 2916.59,1118.67 c 64.28,112.65 151.69,200.42 262.31,263.34 110.57,62.89 232.91,94.35 367.01,94.35 153.44,0 289.25,-38.04 407.44,-114.05 118.19,-76.03 204.25,-183.18 258.16,-321.39 h -226.02 c -40.1,84.29 -98.16,149.62 -174.17,195.95 -76.04,46.29 -164.52,69.45 -265.41,69.45 -100.92,0 -191.8,-23.16 -272.67,-69.45 -80.87,-46.33 -144.47,-112.69 -190.77,-199.06 -46.33,-86.419 -69.46,-186.298 -69.46,-299.63 0,-113.371 23.13,-212.891 69.46,-298.59 46.3,-85.719 109.9,-151.719 190.77,-198.008 80.87,-46.332 171.75,-69.473 272.67,-69.473 142.36,0 259.19,42.512 350.42,127.52 91.24,85.019 143.76,200.09 157.59,345.242 h -576.44 v 149.301 h 777.57 V 649.02 C 4243.97,530.121 4206.65,421.262 4143.08,322.441 4079.48,223.602 3995.86,145.469 3892.19,88.1289 3788.51,30.75 3673.07,2.08203 3545.91,2.08203 c -134.1,0 -256.44,31.42967 -367.01,94.34767 -110.62,62.8793 -198.03,150.3323 -262.31,262.3003 -64.27,111.969 -96.41,238.45 -96.41,379.45 0,141.011 32.14,267.81 96.41,380.49"
         style="fill:#040606;fill-opacity:1;fill-rule:nonzero;stroke:none"
         transform="matrix(0.13333333,0,0,-0.13333333,0,693.29333)" />
      <path
         id="path8"
         d="m 5136.3,1636.02 c -20.74,20.74 -31.1,46.29 -31.1,76.72 0,30.39 10.36,56.31 31.1,77.75 20.74,21.42 46.3,32.15 76.72,32.15 30.39,0 56.31,-10.73 77.76,-32.15 21.42,-21.44 32.14,-47.36 32.14,-77.75 0,-30.43 -10.72,-55.98 -32.14,-76.72 -21.45,-20.73 -47.37,-31.1 -77.76,-31.1 -30.42,0 -55.98,10.37 -76.72,31.1 z m -336.95,0 c -21.45,20.74 -32.14,46.29 -32.14,76.72 0,30.39 10.69,56.31 32.14,77.75 21.42,21.42 47.34,32.15 77.76,32.15 29.03,0 54.24,-10.73 75.69,-32.15 21.41,-21.44 32.13,-47.36 32.13,-77.75 0,-30.43 -10.72,-55.98 -32.13,-76.72 -21.45,-20.73 -46.66,-31.1 -75.69,-31.1 -30.42,0 -56.34,10.37 -77.76,31.1 z M 4688.42,1459.77 V 547.422 c 0,-127.203 31.78,-222.223 95.38,-285.113 63.57,-62.918 150.66,-94.348 261.27,-94.348 110.57,0 197.31,31.43 260.23,94.348 62.88,62.89 94.34,157.91 94.34,285.113 v 912.348 h 188.69 V 547.422 c 0,-120.274 -24.2,-221.551 -72.57,-303.781 C 5467.35,161.391 5402.04,100.219 5319.81,60.1406 5237.55,20.0313 5145.28,0 5042.99,0 4940.68,0 4848.41,20.0313 4766.18,60.1406 4683.92,100.219 4618.96,161.391 4571.26,243.641 c -47.69,82.23 -71.53,183.507 -71.53,303.781 v 912.348 h 188.69"
         style="fill:#040606;fill-opacity:1;fill-rule:nonzero;stroke:none"
         transform="matrix(0.13333333,0,0,-0.13333333,0,693.29333)" />
      <path
         id="path9"
         d="M 6092.17,1312.55 V 816.98 h 526.67 V 671.832 H 6092.17 V 163.82 h 588.88 V 14.5195 H 5903.48 V 1461.84 h 777.57 v -149.29 h -588.88"
         style="fill:#040606;fill-opacity:1;fill-rule:nonzero;stroke:none"
         transform="matrix(0.13333333,0,0,-0.13333333,0,693.29333)" />
      <path
         id="path10"
         d="M 8433.14,1449.4 V 14.5195 H 8244.45 V 1084.46 L 7767.54,14.5195 H 7634.83 L 7155.85,1082.39 V 14.5195 H 6967.16 V 1449.4 h 203.2 L 7701.19,263.352 8232.01,1449.4 h 201.13"
         style="fill:#040606;fill-opacity:1;fill-rule:nonzero;stroke:none"
         transform="matrix(0.13333333,0,0,-0.13333333,0,693.29333)" />
      <path
         id="path11"
         d="M 8941.14,1312.55 V 816.98 h 526.67 V 671.832 H 8941.14 V 163.82 h 588.88 V 14.5195 H 8752.45 V 1461.84 h 777.57 v -149.29 h -588.88"
         style="fill:#040606;fill-opacity:1;fill-rule:nonzero;stroke:none"
         transform="matrix(0.13333333,0,0,-0.13333333,0,693.29333)" />
      <path
         id="path12"
         d="m 10018.3,50.8086 c -75.35,33.8633 -134.45,80.8634 -177.28,140.9924 -42.86,60.14 -64.99,129.597 -66.35,208.398 h 201.12 c 6.91,-69.14 35.21,-127.519 85.01,-175.219 49.8,-47.679 121,-71.531 213.6,-71.531 88.4,0 158.9,23.133 211.5,69.461 52.5,46.301 78.8,105.391 78.8,177.289 0,55.27 -15.2,100.199 -45.6,134.781 -30.5,34.532 -68.5,60.809 -114.1,78.79 -45.6,17.949 -107.1,37.332 -184.5,58.062 -95.4,24.879 -171.8,49.77 -229.15,74.637 -57.38,24.89 -106.46,63.929 -147.22,117.16 -40.79,53.203 -61.17,124.742 -61.17,214.611 0,78.8 20.03,148.58 60.13,209.42 40.09,60.82 96.42,107.83 169.01,141.01 72.6,33.17 155.8,49.76 249.8,49.76 135.5,0 246.4,-33.89 332.8,-101.6 86.4,-67.75 135.1,-157.59 146.2,-269.56 h -207.3 c -7,59.41 -35.6,110.22 -86.1,152.4 -50.5,42.16 -118.5,63.25 -204.2,63.25 -78.8,0 -143.1,-20.74 -192.9,-62.21 -49.7,-41.47 -74.61,-100.24 -74.61,-176.25 0,-52.55 14.85,-95.378 44.61,-128.562 29.7,-33.179 66.3,-58.406 109.9,-75.679 43.5,-17.297 104.7,-37 183.5,-59.098 95.4,-26.269 172.1,-52.191 230.1,-77.762 58.1,-25.589 107.9,-64.988 149.3,-118.179 41.5,-53.239 62.2,-125.461 62.2,-216.692 0,-70.496 -18.6,-136.847 -55.9,-199.058 -37.4,-62.2 -92.7,-112.68 -165.9,-151.3597 C 10460.3,19.3516 10373.9,0 10274.4,0 c -95.4,0 -180.8,16.9219 -256.1,50.8086"
         style="fill:#040606;fill-opacity:1;fill-rule:nonzero;stroke:none"
         transform="matrix(0.13333333,0,0,-0.13333333,0,693.29333)" />
    </g>
  </g>
</svg>
