<?xml version="1.0" encoding="UTF-8"?>
<svg xmlns="http://www.w3.org/2000/svg" xmlns:xlink="http://www.w3.org/1999/xlink" viewBox="0 267 756 530">
<path fill-rule="nonzero" fill="rgb(1.713562%, 2.252197%, 2.304077%)" fill-opacity="1" d="M 67.472656 272.480469 L 153.390625 522.132812 L 239.757812 272.480469 L 306.78125 272.480469 L 191.625 586.453125 L 115.15625 586.453125 L 0 272.480469 L 67.472656 272.480469 "/>
<path fill-rule="nonzero" fill="rgb(1.713562%, 2.252197%, 2.304077%)" fill-opacity="1" d="M 407.539062 272.480469 L 407.539062 586.453125 L 344.5625 586.453125 L 344.5625 272.480469 L 407.539062 272.480469 "/>
<path fill-rule="nonzero" fill="rgb(1.713562%, 2.252197%, 2.304077%)" fill-opacity="1" d="M 512.347656 272.480469 L 598.265625 522.132812 L 684.632812 272.480469 L 751.65625 272.480469 L 636.5 586.453125 L 560.03125 586.453125 L 444.875 272.480469 L 512.347656 272.480469 "/>
<path fill-rule="nonzero" fill="rgb(1.713562%, 2.252197%, 2.304077%)" fill-opacity="1" d="M 291.660156 680.132812 C 298.085938 668.867188 306.828125 660.089844 317.890625 653.800781 C 328.945312 647.511719 341.179688 644.363281 354.589844 644.363281 C 369.933594 644.363281 383.515625 648.167969 395.335938 655.769531 C 407.152344 663.371094 415.761719 674.085938 421.152344 687.90625 L 398.550781 687.90625 C 394.539062 679.480469 388.734375 672.945312 381.132812 668.3125 C 373.527344 663.683594 364.679688 661.367188 354.589844 661.367188 C 344.5 661.367188 335.410156 663.683594 327.324219 668.3125 C 319.238281 672.945312 312.878906 679.582031 308.246094 688.21875 C 303.613281 696.859375 301.300781 706.847656 301.300781 718.183594 C 301.300781 729.519531 303.613281 739.472656 308.246094 748.039062 C 312.878906 756.613281 319.238281 763.214844 327.324219 767.84375 C 335.410156 772.476562 344.5 774.789062 354.589844 774.789062 C 368.828125 774.789062 380.511719 770.539062 389.632812 762.035156 C 398.757812 753.535156 404.007812 742.027344 405.390625 727.511719 L 347.746094 727.511719 L 347.746094 712.582031 L 425.503906 712.582031 L 425.503906 727.097656 C 424.398438 738.988281 420.664062 749.875 414.308594 759.757812 C 407.949219 769.640625 399.585938 777.453125 389.21875 783.1875 C 378.851562 788.925781 367.308594 791.792969 354.589844 791.792969 C 341.179688 791.792969 328.945312 788.648438 317.890625 782.355469 C 306.828125 776.070312 298.085938 767.324219 291.660156 756.128906 C 285.230469 744.929688 282.019531 732.28125 282.019531 718.183594 C 282.019531 704.082031 285.230469 691.402344 291.660156 680.132812 "/>
<path fill-rule="nonzero" fill="rgb(1.713562%, 2.252197%, 2.304077%)" fill-opacity="1" d="M 513.628906 628.398438 C 511.554688 626.324219 510.519531 623.769531 510.519531 620.726562 C 510.519531 617.6875 511.554688 615.09375 513.628906 612.949219 C 515.703125 610.808594 518.261719 609.734375 521.300781 609.734375 C 524.339844 609.734375 526.933594 610.808594 529.078125 612.949219 C 531.21875 615.09375 532.292969 617.6875 532.292969 620.726562 C 532.292969 623.769531 531.21875 626.324219 529.078125 628.398438 C 526.933594 630.472656 524.339844 631.507812 521.300781 631.507812 C 518.261719 631.507812 515.703125 630.472656 513.628906 628.398438 Z M 479.933594 628.398438 C 477.789062 626.324219 476.722656 623.769531 476.722656 620.726562 C 476.722656 617.6875 477.789062 615.09375 479.933594 612.949219 C 482.078125 610.808594 484.667969 609.734375 487.710938 609.734375 C 490.613281 609.734375 493.136719 610.808594 495.28125 612.949219 C 497.421875 615.09375 498.492188 617.6875 498.492188 620.726562 C 498.492188 623.769531 497.421875 626.324219 495.28125 628.398438 C 493.136719 630.472656 490.613281 631.507812 487.710938 631.507812 C 484.667969 631.507812 482.078125 630.472656 479.933594 628.398438 Z M 468.84375 646.023438 L 468.84375 737.257812 C 468.84375 749.976562 472.019531 759.480469 478.378906 765.769531 C 484.738281 772.0625 493.445312 775.203125 504.507812 775.203125 C 515.5625 775.203125 524.238281 772.0625 530.53125 765.769531 C 536.816406 759.480469 539.964844 749.976562 539.964844 737.257812 L 539.964844 646.023438 L 558.832031 646.023438 L 558.832031 737.257812 C 558.832031 749.285156 556.414062 759.414062 551.574219 767.636719 C 546.734375 775.859375 540.203125 781.976562 531.980469 785.984375 C 523.753906 789.996094 514.527344 792 504.300781 792 C 494.066406 792 484.839844 789.996094 476.617188 785.984375 C 468.390625 781.976562 461.894531 775.859375 457.125 767.636719 C 452.355469 759.414062 449.972656 749.285156 449.972656 737.257812 L 449.972656 646.023438 L 468.84375 646.023438 "/>
<path fill-rule="nonzero" fill="rgb(1.713562%, 2.252197%, 2.304077%)" fill-opacity="1" d="M 609.21875 660.746094 L 609.21875 710.300781 L 661.882812 710.300781 L 661.882812 724.816406 L 609.21875 724.816406 L 609.21875 775.617188 L 668.105469 775.617188 L 668.105469 790.546875 L 590.347656 790.546875 L 590.347656 645.816406 L 668.105469 645.816406 L 668.105469 660.746094 L 609.21875 660.746094 "/>
</svg>
